<?xml version="1.0" encoding="utf-8"?>
<!-- Generator: Adobe Illustrator 27.5.0, SVG Export Plug-In . SVG Version: 6.00 Build 0)  -->
<svg version="1.1" xmlns="http://www.w3.org/2000/svg" xmlns:xlink="http://www.w3.org/1999/xlink" x="0px" y="0px"
	 viewBox="0 0 512 512" style="enable-background:new 0 0 512 512;" xml:space="preserve">
<g id="_x30_4">
	<g>
		<g>
			<path style="fill:#261D2A;" d="M308.961,41.376c-0.152,0-0.304-0.032-0.452-0.099c-0.118-0.056-11.57-7.195-11.377-9.065
				c0.111-1.103,0.169-1.703,15.131-1.545c0.604,0.006,1.091,0.504,1.084,1.11c-0.006,0.604-0.604,1.071-1.11,1.084
				c-4.367-0.045-9.149,0.004-11.711,0.165c2.618,2.059,8.086,5.832,8.922,6.267c0.529,0.276,0.754,0.93,0.493,1.466
				C309.747,41.146,309.364,41.376,308.961,41.376z"/>
			<path style="fill:#CA7A8C;" d="M325.827,38.284c0,0-4.424-16.55-12.553-11.738c-11.261,6.666-10.527,39.015,13.707,41.177
				s28.68-18.308,28.68-18.308l-12.852-0.338c0,0,7.188-9.722,5.043-16.061c-2.145-6.339-7.858,0.782-7.858,0.782
				s4.995-16.627-1.764-15.721S325.827,38.284,325.827,38.284z"/>
			<path style="fill:#261D2A;" d="M314.705,38.449c-0.484,0-0.926-0.193-1.264-0.555c-1.258-1.352-0.675-5.314-0.216-7.557
				c0.122-0.593,0.698-0.975,1.296-0.855c0.594,0.122,0.975,0.703,0.855,1.296c-0.437,2.134-0.604,4.463-0.414,5.354
				c0.758-0.501,1.847-2.38,2.447-4.034c0.206-0.568,0.833-0.859,1.406-0.656c0.57,0.206,0.863,0.836,0.656,1.406
				c-0.446,1.23-2.091,5.266-4.517,5.586C314.87,38.445,314.787,38.449,314.705,38.449z"/>
			<path style="fill:#261D2A;" d="M338.696,49.826c-0.242,0-0.484-0.079-0.688-0.242c-0.471-0.381-0.546-1.071-0.167-1.543
				c1.776-2.209,4.347-6.505,3.683-8.632c-0.06-0.197-0.118-0.257-0.118-0.257c-0.006,0-0.011,0-0.017,0
				c-0.606,0-2.719,1.888-4.311,3.955c-0.294,0.377-0.797,0.521-1.247,0.36c-0.45-0.165-0.739-0.602-0.718-1.08
				c0.135-3.092-0.133-6.224-0.589-7.25c-1.168,1.196-3.578,6.203-5.301,10.627c-0.221,0.563-0.859,0.846-1.421,0.623
				c-0.564-0.221-0.844-0.855-0.624-1.421c4.877-12.521,6.955-12.288,7.621-12.206c1.596,0.184,2.449,2.434,2.545,6.698
				c1.384-1.388,3.068-2.689,4.517-2.432c0.482,0.086,1.35,0.426,1.757,1.729c1.228,3.932-3.525,9.984-4.069,10.661
				C339.334,49.687,339.015,49.826,338.696,49.826z"/>
			<path style="fill:#261D2A;" d="M326.49,63.335c-2.132,0-4.418-0.326-6.681-1.221c-4.982-1.969-8.707-6.246-11.077-12.714
				c-0.208-0.568,0.084-1.2,0.654-1.408c0.563-0.204,1.2,0.084,1.408,0.653c2.143,5.854,5.449,9.699,9.824,11.429
				c7.278,2.875,15.152-1.02,15.232-1.058c0.538-0.27,1.198-0.058,1.472,0.486c0.272,0.54,0.056,1.2-0.486,1.472
				C336.577,61.105,332.062,63.335,326.49,63.335z"/>
		</g>
		<g>
			<path style="fill:#261D2A;" d="M163.191,175.437c-0.261,0-0.523-0.092-0.733-0.281c-0.45-0.405-0.488-1.099-0.084-1.549
				c0.585-0.718,4.122-6.34,5.716-9.264c-2.417,0.863-6.831,2.7-10.826,4.465c-0.553,0.244-1.204-0.006-1.446-0.559
				c-0.246-0.555,0.004-1.202,0.559-1.446c13.674-6.044,13.963-5.549,14.514-4.544c0.908,1.639-6.798,12.718-6.884,12.815
				C163.791,175.315,163.491,175.437,163.191,175.437z"/>
			<path style="fill:#CA7A8C;" d="M146.912,179.148c0,0-2.457-16.954,6.91-15.736c12.977,1.687,25.054,31.707,3.634,43.246
				s-33.575-5.521-33.575-5.521l11.678-5.377c0,0-10.438-6.101-10.965-12.773c-0.527-6.672,7.53-2.378,7.53-2.378
				s-11.144-13.312-4.576-15.144S146.912,179.148,146.912,179.148z"/>
			<path style="fill:#261D2A;" d="M156.266,175.092c-2.233,0-4.847-2.582-5.654-3.445c-0.416-0.441-0.392-1.133,0.049-1.549
				c0.435-0.414,1.131-0.394,1.549,0.047c1.204,1.281,2.946,2.58,3.839,2.745c-0.178-0.898-1.249-2.972-2.49-4.759
				c-0.347-0.497-0.223-1.181,0.274-1.526c0.497-0.345,1.181-0.223,1.526,0.274c1.307,1.879,3.405,5.292,2.781,7.028
				c-0.195,0.546-0.615,0.934-1.176,1.093C156.737,175.064,156.504,175.092,156.266,175.092z"/>
			<path style="fill:#261D2A;" d="M139.203,194.917c-0.174,0-0.349-0.041-0.514-0.129c-0.767-0.407-7.52-4.097-7.943-8.195
				c-0.141-1.356,0.523-2.01,0.932-2.28c1.202-0.788,3.289-0.279,5.112,0.454c-1.594-3.957-1.697-6.361-0.302-7.158
				c0.598-0.334,2.408-1.363,11.816,8.215c0.424,0.433,0.42,1.127-0.013,1.551c-0.433,0.426-1.127,0.422-1.551-0.013
				c-3.415-3.475-7.735-7.229-9.177-7.72c-0.011,0.831,1.013,3.994,2.434,6.936c0.208,0.431,0.114,0.947-0.236,1.275
				c-0.345,0.33-0.87,0.396-1.286,0.161c-2.267-1.262-4.924-2.164-5.564-1.881c0.009,0.019,0.002,0.099,0.015,0.234
				c0.229,2.226,4.287,5.159,6.79,6.486c0.536,0.283,0.739,0.947,0.454,1.483C139.976,194.705,139.595,194.917,139.203,194.917z"/>
			<path style="fill:#261D2A;" d="M146.543,204.359c-0.456,0-0.739-0.015-0.801-0.019c-0.604-0.036-1.065-0.557-1.028-1.161
				c0.039-0.604,0.557-1.088,1.161-1.028c0.09,0,8.896,0.461,14.426-5.041c3.332-3.315,4.849-8.146,4.512-14.364
				c-0.034-0.606,0.431-1.123,1.035-1.155c0.686-0.056,1.123,0.431,1.155,1.035c0.373,6.878-1.365,12.279-5.168,16.052
				C156.568,203.903,149.016,204.359,146.543,204.359z"/>
		</g>
		<polygon style="fill:#D2B32A;" points="47.097,191.158 60.389,183.556 57.233,197.666 66.779,206.777 55.145,210.318 
			48.749,222.448 43.082,211.294 28.469,210.084 39.582,199.697 34.869,186.874 		"/>
		<polygon style="fill:#D2B32A;" points="474.196,400.319 487.488,392.717 484.331,406.828 493.877,415.939 482.244,419.479 
			475.848,431.609 470.181,420.455 455.568,419.246 466.681,408.859 461.967,396.035 		"/>
		<g>
			<path style="fill:#FFFFFF;" d="M69.09,115.774c0,0-1.95-16.461,13.797-10.937c15.748,5.523,10.398,20.501,4.435,15.274
				c-5.963-5.227,5.579-22.541,17.581-14.608s9.098,22.985,0.498,23.987c-8.6,1.001,5.426-17.499,16.091-5.821
				s-13.223,32.403-22.779,24.544c-9.556-7.859-1.836-20.242,0.381-12.605c2.217,7.637-4.127,15.015-21.25,14.497
				s-8.984-26.767-3.097-19.019c5.887,7.748-4.165,16.275-16.129,7.082C46.655,128.973,60.681,110.473,69.09,115.774z"/>
			<path style="fill:#261D2A;" d="M79.523,151.226c-0.557,0-1.127-0.009-1.71-0.026c-5.614-0.171-9.528-3.098-10.856-8.071
				c-2.948-0.414-6.046-1.817-9.007-4.092c-4.654-3.578-6.201-8.937-4.24-14.7c2.018-5.941,7.343-10.597,12.118-10.597
				c0.724,0,1.421,0.101,2.087,0.302c0.009-2.275,0.409-6.136,2.732-8.75c2.623-2.952,6.91-3.486,12.603-1.489
				c2.185,0.767,4.097,1.748,5.695,2.929c2.717-2.792,6.156-4.373,9.573-4.373c2.402,0,4.754,0.75,6.991,2.23
				c5.187,3.428,8.296,8.637,8.485,14.113c3.032,0.131,5.896,1.586,8.309,4.227c3.293,3.604,3.869,8.399,1.622,13.496
				c-3.432,7.786-12.778,14.617-19.997,14.619c-0.002,0-0.002,0-0.002,0c-2.318,0-4.307-0.668-5.907-1.986
				c-0.748-0.613-1.423-1.277-2.014-1.978C92.31,149.797,86.649,151.226,79.523,151.226z M69.282,143.245
				c0.943,2.781,3.227,5.599,8.596,5.761c9.157,0.279,14.22-1.768,16.847-3.711c-2.344-3.908-2.119-8.155-0.765-10.777
				c0.788-1.528,1.922-2.404,3.111-2.404c0.803,0,2.273,0.416,3.079,3.186c1.11,3.827,0.201,7.54-2.492,10.338
				c0.512,0.611,1.099,1.189,1.753,1.727c1.198,0.983,2.717,1.485,4.514,1.485l0,0c6.346-0.002,14.921-6.346,17.991-13.31
				c1.326-3.01,2.19-7.383-1.234-11.133c-2.035-2.226-4.311-3.409-6.773-3.514c-0.585,5.247-3.925,9.168-8.382,9.687
				c-2.845,0.313-3.842-1.172-3.889-2.573c-0.105-3.105,4.418-8.262,10.162-9.177c-0.146-4.784-2.897-9.369-7.501-12.412
				c-4.532-2.993-9.779-2.19-13.678,1.735c3.67,3.587,4.322,7.953,3.263,10.854c-1.191,3.267-4.607,4.277-7.285,1.928
				c-3.291-2.884-2.143-8.42,0.917-12.532c-1.397-1.009-3.072-1.858-4.992-2.533c-4.78-1.678-8.215-1.399-10.239,0.876
				c-2.755,3.102-2.113,8.84-2.106,8.898c0.051,0.42-0.146,0.831-0.504,1.056c-0.356,0.227-0.814,0.227-1.17,0
				c-0.81-0.51-1.71-0.769-2.678-0.769c-3.829,0-8.335,4.086-10.042,9.108c-1.637,4.821-0.362,9.286,3.501,12.256
				c2.415,1.855,4.898,3.062,7.257,3.537c-0.426-4.234,0.915-8.352,2.64-10.464c0.966-1.185,2.089-1.81,3.242-1.81
				c0.812,0,2.027,0.321,3.197,1.862c2.078,2.736,2.528,5.8,1.236,8.407C75.568,141.428,72.695,143.09,69.282,143.245z
				 M97.071,134.308c-0.208,0-0.705,0.33-1.161,1.217c-0.992,1.92-1.185,5.187,0.478,8.255c1.915-2.188,2.505-4.939,1.654-7.868
				C97.703,134.745,97.266,134.308,97.071,134.308z M72.425,130.753c-0.465,0-1.013,0.356-1.543,1.003
				c-1.472,1.804-2.582,5.661-2.1,9.305c2.832-0.006,5.116-1.204,6.108-3.207c0.911-1.832,0.538-4.058-1.018-6.104
				C73.528,131.293,72.997,130.753,72.425,130.753z M111.673,121.086c-4.557,0.973-7.895,5.196-7.84,6.846
				c0.006,0.199,0.017,0.499,0.93,0.499c0.159,0,0.328-0.011,0.512-0.032C108.57,128.015,111.077,125.084,111.673,121.086z
				 M89.193,109.822c-2.642,3.58-3.19,7.673-1.146,9.464c1.545,1.361,3.081,0.876,3.777-1.031
				C92.625,116.06,92.072,112.702,89.193,109.822z"/>
		</g>
		<g>
			<path style="fill:#FFFFFF;" d="M417.661,213.506c0,0-1.95-16.461,13.797-10.937s10.398,20.501,4.435,15.274
				c-5.963-5.227,5.579-22.541,17.581-14.608c12.002,7.933,9.098,22.985,0.498,23.987c-8.6,1.001,5.426-17.499,16.091-5.821
				s-13.223,32.403-22.779,24.544c-9.556-7.859-1.836-20.242,0.381-12.605c2.217,7.637-4.127,15.015-21.25,14.497
				s-8.984-26.767-3.097-19.019c5.887,7.748-4.165,16.275-16.129,7.082C395.225,226.705,409.252,208.204,417.661,213.506z"/>
			<path style="fill:#261D2A;" d="M428.093,248.957c-0.557,0-1.127-0.009-1.71-0.026c-5.616-0.169-9.53-3.098-10.856-8.071
				c-2.948-0.414-6.044-1.817-9.005-4.092c-4.656-3.578-6.201-8.935-4.242-14.7c2.02-5.941,7.343-10.597,12.121-10.597
				c0.722,0,1.418,0.103,2.085,0.302c0.009-2.275,0.409-6.136,2.732-8.75c2.627-2.952,6.912-3.486,12.605-1.489
				c2.185,0.765,4.094,1.748,5.693,2.929c2.717-2.792,6.156-4.373,9.573-4.373c2.402,0,4.754,0.75,6.991,2.23
				c5.187,3.428,8.296,8.637,8.485,14.113c3.068,0.124,5.862,1.545,8.311,4.227c3.293,3.606,3.867,8.399,1.62,13.498
				c-3.432,7.786-12.778,14.617-19.997,14.617c-2.32,0-4.309-0.668-5.909-1.986c-0.748-0.613-1.423-1.277-2.014-1.978
				C440.88,247.528,435.219,248.957,428.093,248.957z M417.851,240.976c0.943,2.781,3.227,5.601,8.596,5.761
				c9.149,0.291,14.22-1.768,16.847-3.711c-2.344-3.908-2.119-8.155-0.765-10.777c0.788-1.528,1.922-2.404,3.111-2.404
				c0.803,0,2.273,0.416,3.079,3.186c1.11,3.827,0.201,7.54-2.492,10.338c0.512,0.611,1.099,1.189,1.753,1.727
				c1.2,0.986,2.719,1.485,4.517,1.485c6.344,0,14.919-6.344,17.989-13.31c1.328-3.008,2.192-7.383-1.232-11.133
				c-2.035-2.226-4.311-3.409-6.773-3.514c-0.585,5.247-3.925,9.168-8.382,9.687c-0.272,0.03-0.529,0.045-0.765,0.045h-0.002
				c-2.237,0.002-3.081-1.352-3.124-2.618c-0.105-3.102,4.418-8.262,10.164-9.175c-0.146-4.784-2.899-9.369-7.503-12.414
				c-1.875-1.238-3.82-1.866-5.783-1.866c-2.779,0-5.609,1.301-7.893,3.6c3.668,3.587,4.322,7.955,3.263,10.854
				c-1.191,3.274-4.613,4.277-7.287,1.93c-3.291-2.886-2.143-8.42,0.917-12.532c-1.397-1.009-3.07-1.86-4.99-2.533
				c-4.78-1.675-8.215-1.403-10.242,0.876c-2.755,3.102-2.113,8.84-2.106,8.898c0.051,0.42-0.146,0.831-0.504,1.056
				c-0.356,0.227-0.814,0.227-1.17,0c-0.81-0.51-1.71-0.769-2.676-0.769c-3.831,0-8.337,4.086-10.042,9.11
				c-1.639,4.819-0.362,9.286,3.501,12.253c2.415,1.855,4.896,3.062,7.255,3.537c-0.424-4.234,0.915-8.352,2.642-10.464
				c0.966-1.185,2.089-1.81,3.242-1.81c0.812,0,2.027,0.324,3.197,1.862c2.078,2.736,2.528,5.8,1.234,8.407
				C424.118,239.2,421.309,240.828,417.851,240.976z M445.64,232.039c-0.208,0-0.705,0.33-1.161,1.217
				c-0.992,1.92-1.185,5.187,0.478,8.255c1.915-2.188,2.505-4.939,1.654-7.868C446.273,232.477,445.835,232.039,445.64,232.039z
				 M420.997,228.485c-0.465,0-1.013,0.356-1.543,1.005c-1.472,1.802-2.584,5.659-2.102,9.303c2.832-0.006,5.116-1.204,6.111-3.207
				c0.908-1.832,0.538-4.058-1.018-6.104C422.1,229.027,421.569,228.485,420.997,228.485z M460.242,218.818
				c-4.557,0.975-7.895,5.196-7.84,6.846c0.006,0.199,0.017,0.499,0.93,0.499c0,0,0,0,0.002,0c0.156,0,0.328-0.011,0.512-0.032
				C457.142,225.747,459.649,222.816,460.242,218.818z M437.762,207.554c-2.64,3.58-3.19,7.673-1.146,9.464
				c1.543,1.358,3.083,0.881,3.78-1.033C441.197,213.789,440.644,210.434,437.762,207.554z"/>
		</g>
		<path style="fill:#261D2A;" d="M469.497,455.448l-0.025-0.02c-3.305-2.562-3.908-7.336-1.345-10.643
			c2.552-3.292,7.314-3.904,10.616-1.365c1.627,1.262,2.65,3.053,2.904,5.064c0.253,2.008-0.29,3.998-1.531,5.598
			C477.562,457.373,472.797,457.985,469.497,455.448z M477.425,445.174c-2.366-1.819-5.75-1.383-7.564,0.956
			c-1.823,2.35-1.394,5.744,0.954,7.565l-0.65,0.884l0.669-0.87c2.346,1.803,5.731,1.368,7.548-0.97
			c0.883-1.138,1.269-2.551,1.087-3.98C479.289,447.329,478.562,446.056,477.425,445.174z"/>
		<path style="fill:#261D2A;" d="M32.16,420.344l-0.025-0.02c-3.305-2.563-3.908-7.336-1.345-10.643
			c2.552-3.292,7.314-3.904,10.616-1.365c1.627,1.262,2.65,3.053,2.904,5.064c0.253,2.008-0.29,3.998-1.531,5.598
			C40.225,422.269,35.46,422.881,32.16,420.344z M40.087,410.07c-2.366-1.819-5.75-1.383-7.564,0.956
			c-1.823,2.35-1.394,5.744,0.954,7.565l-0.65,0.884l0.669-0.87c2.346,1.803,5.731,1.368,7.548-0.97
			c0.883-1.138,1.269-2.551,1.087-3.98C41.952,412.225,41.225,410.952,40.087,410.07z"/>
		<path style="fill:#261D2A;" d="M488.022,219.388l-0.025-0.02c-3.305-2.562-3.908-7.336-1.345-10.643
			c2.552-3.292,7.314-3.904,10.616-1.365c1.627,1.262,2.65,3.053,2.904,5.064c0.253,2.008-0.29,3.998-1.531,5.598
			C496.088,221.313,491.323,221.925,488.022,219.388z M495.95,209.113c-2.366-1.819-5.75-1.383-7.564,0.956
			c-1.823,2.35-1.394,5.744,0.954,7.565l-0.65,0.884l0.669-0.87c2.346,1.803,5.731,1.368,7.548-0.97
			c0.883-1.138,1.269-2.551,1.087-3.98C497.815,211.268,497.088,209.996,495.95,209.113z"/>
		<path style="fill:#261D2A;" d="M180.115,166.092l-0.025-0.02c-3.305-2.563-3.908-7.336-1.345-10.643
			c2.552-3.292,7.314-3.904,10.616-1.365c1.627,1.262,2.65,3.053,2.904,5.064c0.253,2.008-0.29,3.998-1.531,5.598
			C188.18,168.017,183.415,168.629,180.115,166.092z M188.043,155.817c-2.366-1.819-5.75-1.383-7.564,0.956
			c-1.823,2.35-1.394,5.744,0.954,7.565l-0.65,0.884l0.669-0.87c2.346,1.803,5.731,1.368,7.548-0.97
			c0.883-1.138,1.269-2.551,1.087-3.98C189.907,157.972,189.18,156.7,188.043,155.817z"/>
		<path style="fill:#261D2A;" d="M402.011,180.789c-0.816,0-1.59,0-3.621-8.562c-7.197-1.483-7.795-2.308-8.026-2.627
			c-0.199-0.274-0.281-0.778-0.184-1.106c0.137-0.461,0.454-1.528,8.74-4.742c3.051-7.655,4.049-7.655,4.714-7.655
			c0.351,0,0.833,0.255,1.041,0.54c0.521,0.718,0.975,2.569,1.665,5.534c0.216,0.93,0.476,2.053,0.628,2.545
			c0.431,0.199,1.382,0.553,2.168,0.848c4.219,1.575,5.305,2.106,5.489,3.12c0.069,0.381-0.131,0.932-0.422,1.187
			c-0.87,0.761-4.986,2.228-7.143,2.965c-3.593,7.895-4.341,7.923-5.001,7.951C402.045,180.789,402.026,180.789,402.011,180.789z
			 M393.167,168.694c1.438,0.433,4.058,1.065,6.346,1.523c0.42,0.084,0.754,0.407,0.853,0.827c0.555,2.383,1.286,5.097,1.817,6.648
			c0.818-1.427,2.063-3.957,3.072-6.194c0.126-0.276,0.362-0.491,0.649-0.587c1.969-0.664,4.193-1.483,5.577-2.068
			c-0.958-0.42-2.265-0.906-3.113-1.223c-2.41-0.9-2.862-1.095-3.169-1.517c-0.266-0.366-0.426-0.977-0.998-3.437
			c-0.214-0.921-0.542-2.338-0.838-3.396c-0.737,1.361-1.772,3.681-2.582,5.736c-0.111,0.285-0.339,0.512-0.626,0.621
			C397.597,166.609,394.692,167.867,393.167,168.694z"/>
		<path style="fill:#261D2A;" d="M172.995,238.426c-0.816,0-1.59,0-3.621-8.562c-7.195-1.483-7.816-2.338-8.024-2.625
			c-0.201-0.276-0.283-0.78-0.184-1.108c0.137-0.461,0.454-1.528,8.74-4.742c3.051-7.655,4.049-7.655,4.714-7.655
			c0.351,0,0.833,0.255,1.041,0.54c0.521,0.718,0.975,2.571,1.663,5.536c0.216,0.93,0.478,2.053,0.63,2.545
			c0.431,0.199,1.382,0.555,2.17,0.848c4.217,1.575,5.303,2.106,5.487,3.12c0.069,0.379-0.131,0.93-0.422,1.185
			c-0.872,0.761-4.988,2.228-7.146,2.965c-3.593,7.895-4.341,7.923-5.001,7.951C173.03,238.426,173.01,238.426,172.995,238.426z
			 M164.153,226.332c1.436,0.433,4.056,1.065,6.344,1.523c0.42,0.084,0.754,0.407,0.853,0.827c0.555,2.383,1.286,5.097,1.817,6.648
			c0.818-1.427,2.063-3.957,3.072-6.194c0.126-0.276,0.362-0.491,0.649-0.587c1.969-0.664,4.191-1.481,5.577-2.065
			c-0.958-0.42-2.263-0.906-3.109-1.221c-2.413-0.902-2.867-1.095-3.173-1.519c-0.266-0.366-0.426-0.979-0.996-3.437
			c-0.214-0.921-0.542-2.338-0.838-3.398c-0.737,1.363-1.772,3.681-2.582,5.736c-0.111,0.285-0.339,0.512-0.626,0.621
			C168.582,224.247,165.676,225.505,164.153,226.332z"/>
		<path style="fill:#261D2A;" d="M260.048,58.359l-0.006,0l-4.244-0.015l4.496-3.048c0.501-0.341,0.633-1.023,0.292-1.524
			c-0.343-0.504-1.029-0.628-1.524-0.292l-6.065,4.112l0.134-7.086c0.012-0.606-0.47-1.105-1.076-1.118l-0.006,0
			c-0.602-0.008-1.099,0.472-1.111,1.076l-0.119,6.254l-3.71-4.024c-0.412-0.442-1.104-0.475-1.551-0.063
			c-0.445,0.41-0.473,1.106-0.063,1.551l3.817,4.14l-7.029-0.025c-0.606-0.001-1.099,0.487-1.101,1.093
			c-0.001,0.602,0.481,1.093,1.083,1.1l0.011,0l6.412,0.023l-5.01,3.396c-0.501,0.341-0.633,1.022-0.292,1.524
			c0.21,0.309,0.549,0.476,0.894,0.481c0.219,0.003,0.438-0.059,0.63-0.189l5.813-3.941l-0.135,7.139
			c-0.012,0.606,0.47,1.105,1.076,1.117l0.006,0c0.602,0.008,1.099-0.472,1.111-1.076l0.128-6.743l3.954,4.289
			c0.213,0.23,0.501,0.349,0.792,0.353c0.27,0.003,0.543-0.091,0.758-0.29c0.445-0.41,0.473-1.106,0.063-1.55l-4.14-4.491
			l5.699,0.02c0.606,0.001,1.099-0.487,1.101-1.094C261.137,58.857,260.655,58.367,260.048,58.359z"/>
		<path style="fill:#261D2A;" d="M478.04,368.813l-0.006,0l-4.244-0.015l4.496-3.048c0.501-0.341,0.633-1.023,0.292-1.524
			c-0.343-0.504-1.029-0.628-1.524-0.292l-6.065,4.112l0.134-7.086c0.012-0.606-0.47-1.105-1.076-1.118l-0.006,0
			c-0.602-0.008-1.099,0.472-1.111,1.076l-0.119,6.254l-3.71-4.024c-0.412-0.442-1.104-0.475-1.551-0.063
			c-0.445,0.41-0.473,1.106-0.063,1.551l3.817,4.14l-7.029-0.025c-0.606-0.001-1.099,0.487-1.101,1.093
			c-0.001,0.602,0.481,1.093,1.083,1.1l0.011,0l6.412,0.023l-5.01,3.396c-0.501,0.341-0.633,1.022-0.292,1.524
			c0.21,0.309,0.549,0.476,0.894,0.481c0.219,0.003,0.438-0.059,0.63-0.189l5.813-3.941l-0.135,7.139
			c-0.012,0.606,0.47,1.105,1.076,1.117l0.006,0c0.602,0.008,1.099-0.472,1.111-1.076l0.128-6.743l3.954,4.289
			c0.213,0.23,0.501,0.349,0.792,0.353c0.27,0.003,0.543-0.091,0.758-0.29c0.445-0.41,0.473-1.106,0.063-1.55l-4.14-4.491
			l5.699,0.02c0.606,0.001,1.099-0.487,1.101-1.094C479.129,369.311,478.647,368.82,478.04,368.813z"/>
		<path style="fill:#261D2A;" d="M30.632,377.204l-0.006,0l-4.244-0.015l4.496-3.048c0.501-0.341,0.633-1.023,0.292-1.524
			c-0.343-0.504-1.029-0.628-1.524-0.292l-6.065,4.112l0.134-7.086c0.012-0.606-0.47-1.105-1.076-1.118l-0.006,0
			c-0.602-0.008-1.099,0.472-1.111,1.076l-0.119,6.254l-3.71-4.024c-0.412-0.442-1.104-0.475-1.551-0.063
			c-0.445,0.41-0.473,1.106-0.063,1.551l3.817,4.14l-7.029-0.025c-0.606-0.001-1.099,0.487-1.101,1.093
			c-0.001,0.602,0.481,1.093,1.083,1.1l0.011,0l6.412,0.023l-5.01,3.396c-0.501,0.341-0.633,1.022-0.292,1.524
			c0.21,0.309,0.549,0.476,0.894,0.481c0.219,0.003,0.438-0.059,0.63-0.189l5.813-3.941l-0.135,7.139
			c-0.012,0.606,0.47,1.105,1.076,1.117l0.006,0c0.602,0.008,1.099-0.472,1.111-1.076l0.128-6.743l3.954,4.289
			c0.213,0.23,0.501,0.349,0.792,0.353c0.27,0.003,0.543-0.091,0.758-0.29c0.445-0.41,0.473-1.106,0.063-1.55l-4.14-4.491
			l5.699,0.02c0.606,0.001,1.099-0.487,1.101-1.094C31.72,377.703,31.238,377.212,30.632,377.204z"/>
		<g>
			<path style="fill:#261D2A;" d="M169.691,129.738c-0.285,0-0.668-0.15-0.872-0.347c-0.848-0.821-2.989-6.595-4.444-10.715
				c-4.079,2.398-12.952,7.46-15.131,7.46c-0.784,0-1.219-0.465-1.365-0.9c-0.463-1.38,0.512-10.113,1.088-14.854
				c-15.109-1.305-15.57-2.68-15.795-3.351c-0.201-0.593-0.658-1.954,8.536-11.474c-4.864-1.95-13.05-5.689-13.031-8.737
				c0.017-3.047,7.49-6.644,11.87-8.491c-9.515-12.628-8.703-13.468-8.048-14.147c0.422-0.435,1.123-0.658,3.792-0.658
				c3.345,0,8.429,0.366,10.841,0.555c-1.868-14.985-1.028-15.343-0.216-15.69c0.137-0.058,0.394-0.105,0.542-0.105
				c1.566,0,10.419,3.914,15.358,6.156c1.864-14.045,3.12-14.045,4.043-14.045c0.081,0,0.199,0.013,0.279,0.03
				c0.471,0.107,1.693,0.381,8.307,11.664c3.707-2.843,10.496-7.833,12.489-7.833c0.111,0,0.375,0.036,0.48,0.069
				c0.696,0.221,2.28,0.718,1.427,12.228c3.349-1.018,11.122-3.285,14.036-3.285c1.56,0,1.997,0.694,2.091,1.277
				c0.255,1.596-1.924,8.587-3.244,12.609c5.888,0.692,12.5,1.804,13.49,3.37c0.426,0.675,1.41,2.228-8.86,12.616
				c4.928,2.383,11.683,6.19,11.377,9.029c-0.302,2.8-8.39,6.087-14.102,8.069c2.931,3.825,6.779,9.389,6.123,11.474
				c-0.345,1.097-1.481,2.267-10.619,2.267c-1.768,0-3.357-0.047-4.326-0.084c-0.581,3.572-1.939,11.388-2.931,12.759
				c-0.268,0.369-0.698,0.581-1.181,0.581l0,0c-1.997,0-7.808-5.369-11.647-9.145C171.551,129.736,170.255,129.738,169.691,129.738
				L169.691,129.738z M164.969,115.952c0.126,0,0.253,0.021,0.375,0.066c0.311,0.114,0.553,0.358,0.662,0.671
				c1.433,4.12,3.137,8.65,3.981,10.443c1.669-1.605,5.712-6.768,9.04-11.366c0.189-0.261,0.482-0.424,0.801-0.45
				c0.324-0.021,0.634,0.088,0.863,0.317c3.972,3.964,8.857,8.326,10.623,9.241c0.623-1.798,1.714-7.422,2.481-12.29
				c0.088-0.555,0.589-0.988,1.142-0.923c0.011,0,2.372,0.122,5.198,0.122c6.426,0,8.114-0.611,8.517-0.833
				c-0.126-1.416-3.482-6.503-6.696-10.576c-0.221-0.281-0.291-0.651-0.191-0.994c0.103-0.341,0.366-0.613,0.705-0.726
				c7.257-2.417,13.706-5.506,14.085-6.745c-0.114-1.148-5.502-4.652-11.536-7.448c-0.326-0.152-0.557-0.452-0.619-0.806
				s0.051-0.716,0.306-0.968c4.242-4.223,8.892-9.477,9.489-11.101c-1.322-0.728-7.64-1.813-13.057-2.404
				c-0.33-0.036-0.626-0.219-0.803-0.499c-0.18-0.279-0.223-0.623-0.118-0.938c1.624-4.855,3.248-10.338,3.54-12.281
				c-2.903,0.073-11.641,2.657-14.807,3.662c-0.351,0.109-0.733,0.039-1.018-0.189c-0.285-0.229-0.439-0.587-0.407-0.951
				c0.396-4.602,0.484-10.038,0.032-11.51c-1.438,0.538-7.105,4.495-11.756,8.112c-0.249,0.195-0.563,0.27-0.883,0.212
				c-0.311-0.062-0.581-0.253-0.739-0.527c-2.524-4.345-5.603-9.243-7.064-11.081c-0.698,2.233-1.676,7.985-2.312,12.999
				c-0.045,0.347-0.251,0.651-0.555,0.821c-0.304,0.169-0.673,0.184-0.99,0.041c-6.012-2.751-12.708-5.624-15.071-6.383
				c-0.062,2.29,0.555,8.712,1.292,14.475c0.043,0.33-0.066,0.66-0.298,0.898c-0.231,0.242-0.559,0.356-0.885,0.334
				c-0.077-0.006-7.681-0.658-12.005-0.658c-0.776,0-1.313,0.021-1.682,0.049c1.067,2.117,4.906,7.585,8.545,12.371
				c0.206,0.272,0.274,0.626,0.182,0.956c-0.09,0.33-0.33,0.6-0.647,0.726c-6.173,2.479-11.806,5.819-11.818,7.013
				c0.154,1.258,6.308,4.662,13.166,7.28c0.347,0.131,0.602,0.429,0.681,0.791c0.079,0.36-0.028,0.737-0.287,1.001
				c-3.797,3.874-7.998,8.602-8.956,10.31c1.952,0.696,8.851,1.588,14.809,2.078c0.298,0.024,0.572,0.169,0.761,0.401
				c0.189,0.231,0.274,0.531,0.238,0.827c-0.707,5.674-1.335,11.96-1.356,14.261c2.318-0.784,8.789-4.287,14.48-7.675
				C164.579,116.004,164.774,115.952,164.969,115.952z"/>
			<circle style="fill:#DEBC1E;" cx="173.54" cy="86.82" r="28.157"/>
			<g>
				<path style="fill:#FFFFFF;" d="M172.597,67.323c0,0,4.167,0.174,5.07,2.053"/>
				<path style="fill:#261D2A;" d="M177.668,70.472c-0.407,0-0.799-0.229-0.988-0.621c-0.42-0.872-2.713-1.369-4.131-1.431
					c-0.604-0.028-1.073-0.54-1.048-1.144c0.026-0.604,0.534-1.084,1.14-1.05c0.806,0.034,4.883,0.321,6.014,2.674
					c0.264,0.546,0.034,1.202-0.512,1.463C177.99,70.438,177.829,70.472,177.668,70.472z"/>
			</g>
			<g>
				<path style="fill:#FFFFFF;" d="M177.246,75.349c0,0,4.167,0.174,5.07,2.053"/>
				<path style="fill:#261D2A;" d="M182.318,78.498c-0.407,0-0.799-0.229-0.988-0.621c-0.42-0.872-2.712-1.369-4.131-1.431
					c-0.604-0.028-1.073-0.54-1.048-1.144s0.512-1.054,1.14-1.05c0.806,0.034,4.883,0.321,6.014,2.674
					c0.264,0.546,0.034,1.202-0.512,1.463C182.639,78.464,182.478,78.498,182.318,78.498z"/>
			</g>
			<g>
				<path style="fill:#FFFFFF;" d="M186.402,73.79c0,0,4.073,0.897,4.635,2.905"/>
				<path style="fill:#261D2A;" d="M191.038,77.793c-0.48,0-0.921-0.317-1.056-0.801c-0.251-0.896-2.378-1.813-3.816-2.13
					c-0.591-0.131-0.966-0.716-0.836-1.307c0.131-0.589,0.707-0.96,1.307-0.836c0.788,0.174,4.752,1.168,5.457,3.681
					c0.163,0.583-0.176,1.189-0.761,1.352C191.235,77.78,191.136,77.793,191.038,77.793z"/>
			</g>
			<g>
				<path style="fill:#FFFFFF;" d="M166.393,74.798c0,0,4.167,0.174,5.07,2.053"/>
				<path style="fill:#261D2A;" d="M171.463,77.947c-0.407,0-0.799-0.229-0.988-0.621c-0.405-0.84-2.657-1.371-4.127-1.431
					c-0.606-0.026-1.076-0.538-1.052-1.142c0.026-0.606,0.525-1.063,1.142-1.052c0.806,0.034,4.881,0.321,6.012,2.674
					c0.264,0.546,0.034,1.202-0.512,1.463C171.785,77.913,171.624,77.947,171.463,77.947z"/>
			</g>
			<g>
				<path style="fill:#FFFFFF;" d="M160.543,68.729c0,0,4.099-0.769,5.402,0.859"/>
				<path style="fill:#261D2A;" d="M165.946,70.684c-0.321,0-0.638-0.141-0.855-0.411c-0.609-0.752-2.959-0.722-4.347-0.467
					c-0.602,0.114-1.168-0.283-1.279-0.876c-0.111-0.596,0.281-1.168,0.876-1.279c0.791-0.148,4.832-0.784,6.46,1.251
					c0.379,0.471,0.304,1.161-0.169,1.541C166.43,70.605,166.188,70.684,165.946,70.684z"/>
			</g>
		</g>
		<path style="fill:#261D2A;" d="M53.572,340.036c-0.002,0-0.004,0-0.006,0c-1.536-0.009-3.06-0.126-4.529-0.351
			c-0.6-0.09-1.011-0.651-0.919-1.249c0.09-0.6,0.671-1.011,1.249-0.919c1.365,0.208,2.781,0.317,4.212,0.326
			c0.606,0.004,1.095,0.497,1.091,1.103C54.665,339.55,54.174,340.036,53.572,340.036z M44.936,338.686
			c-0.114,0-0.227-0.017-0.341-0.054c-1.483-0.486-2.899-1.095-4.21-1.815c-0.531-0.291-0.726-0.958-0.435-1.489
			c0.291-0.534,0.962-0.726,1.489-0.435c1.193,0.653,2.485,1.211,3.837,1.652c0.576,0.189,0.891,0.808,0.703,1.384
			C45.827,338.393,45.398,338.686,44.936,338.686z M37.312,334.467c-0.255,0-0.51-0.088-0.716-0.266
			c-1.172-1.011-2.228-2.151-3.141-3.39c-0.36-0.488-0.255-1.174,0.231-1.534c0.491-0.362,1.174-0.257,1.534,0.231
			c0.816,1.108,1.761,2.128,2.807,3.03c0.461,0.396,0.51,1.088,0.116,1.547C37.925,334.339,37.619,334.467,37.312,334.467z
			 M32.142,327.472c-0.42,0-0.821-0.242-1.003-0.653c-0.604-1.361-1.086-2.826-1.436-4.356c-0.135-0.591,0.234-1.178,0.825-1.313
			c0.596-0.139,1.181,0.236,1.313,0.825c0.319,1.393,0.756,2.723,1.303,3.957c0.246,0.553-0.004,1.202-0.559,1.446
			C32.442,327.442,32.292,327.472,32.142,327.472z M30.16,318.977c-0.576,0-1.058-0.448-1.095-1.028
			c-0.043-0.668-0.064-1.356-0.064-2.059c-0.002-0.797,0.026-1.62,0.084-2.466c0.043-0.604,0.572-1.071,1.17-1.02
			c0.604,0.041,1.061,0.566,1.02,1.17c-0.054,0.791-0.081,1.562-0.079,2.314c0,0.658,0.021,1.298,0.06,1.924
			c0.039,0.604-0.422,1.125-1.026,1.163C30.205,318.977,30.182,318.977,30.16,318.977z M30.717,310.241
			c-0.062,0-0.126-0.004-0.189-0.015c-0.598-0.105-0.998-0.671-0.896-1.268c0.244-1.406,0.568-2.88,0.962-4.377
			c0.152-0.585,0.758-0.943,1.339-0.782c0.587,0.154,0.936,0.754,0.782,1.339c-0.379,1.44-0.688,2.85-0.919,4.193
			C31.705,309.864,31.24,310.241,30.717,310.241z M32.922,301.757c-0.118,0-0.238-0.019-0.356-0.06
			c-0.572-0.195-0.878-0.818-0.681-1.393c0.504-1.472,1.076-2.878,1.699-4.18c0.266-0.546,0.919-0.773,1.466-0.514
			c0.546,0.264,0.776,0.919,0.514,1.466c-0.589,1.223-1.127,2.548-1.605,3.94C33.805,301.47,33.378,301.757,32.922,301.757z
			 M66.263,298.569c-0.549,0-1.024-0.414-1.088-0.973c-0.069-0.602,0.364-1.146,0.966-1.215c0.951-0.107,2.233-0.463,2.937-1.536
			c0.334-0.508,1.016-0.647,1.521-0.313c0.506,0.334,0.645,1.013,0.313,1.521c-0.93,1.408-2.492,2.275-4.523,2.509
			C66.346,298.566,66.306,298.569,66.263,298.569z M61.926,298.134c-0.094,0-0.193-0.013-0.289-0.039
			c-1.41-0.386-2.854-0.973-4.287-1.746c-0.534-0.289-0.733-0.953-0.446-1.487c0.289-0.536,0.962-0.726,1.487-0.446
			c1.288,0.696,2.575,1.221,3.825,1.562c0.585,0.161,0.928,0.763,0.769,1.348C62.852,297.812,62.408,298.134,61.926,298.134z
			 M54.221,294.052c-0.242,0-0.484-0.079-0.686-0.24c-1.17-0.936-2.284-1.99-3.315-3.135c-0.407-0.45-0.371-1.144,0.079-1.549
			c0.45-0.411,1.144-0.371,1.549,0.079c0.953,1.056,1.982,2.029,3.057,2.89c0.474,0.379,0.549,1.069,0.171,1.543
			C54.862,293.911,54.543,294.052,54.221,294.052z M36.744,293.891c-0.212,0-0.426-0.06-0.615-0.189
			c-0.501-0.341-0.632-1.022-0.294-1.523c0.883-1.305,1.853-2.5,2.886-3.555c0.424-0.433,1.116-0.437,1.551-0.017
			c0.433,0.424,0.441,1.118,0.017,1.551c-0.941,0.962-1.828,2.055-2.638,3.25C37.441,293.722,37.096,293.891,36.744,293.891z
			 M70.222,292.359c-0.422,0-0.825-0.246-1.005-0.658c-0.439-1.005-1.275-2.042-2.415-3.002c-0.463-0.39-0.523-1.082-0.133-1.547
			c0.394-0.463,1.084-0.523,1.547-0.133c1.395,1.176,2.436,2.492,3.01,3.803c0.242,0.555-0.011,1.202-0.566,1.444
			C70.518,292.329,70.37,292.359,70.222,292.359z M42.87,287.689c-0.354,0-0.701-0.171-0.913-0.488
			c-0.336-0.504-0.199-1.185,0.304-1.521c1.063-0.709,2.19-1.318,3.357-1.815c-0.126-0.257-0.251-0.516-0.369-0.778
			c-0.253-0.551-0.011-1.202,0.54-1.453c0.544-0.255,1.198-0.013,1.453,0.54c0.591,1.288,1.277,2.53,2.038,3.694
			c0.332,0.506,0.191,1.187-0.317,1.517c-0.501,0.332-1.185,0.195-1.517-0.317c-0.27-0.411-0.531-0.833-0.784-1.262
			c-1.11,0.459-2.177,1.028-3.184,1.699C43.292,287.629,43.08,287.689,42.87,287.689z M63.818,286.6
			c-0.161,0-0.324-0.034-0.478-0.109c-1.23-0.596-2.545-1.078-3.91-1.429c-0.587-0.152-0.938-0.75-0.788-1.337
			c0.152-0.587,0.746-0.943,1.337-0.788c1.506,0.39,2.959,0.921,4.317,1.579c0.546,0.266,0.773,0.921,0.51,1.466
			C64.615,286.373,64.225,286.6,63.818,286.6z M50.995,284.588c-0.536,0-1.005-0.394-1.084-0.941c-0.086-0.6,0.33-1.155,0.93-1.243
			c1.517-0.219,3.096-0.276,4.598-0.186c0.604,0.034,1.067,0.555,1.031,1.159c-0.036,0.604-0.578,1.073-1.159,1.031
			c-1.373-0.077-2.787-0.028-4.157,0.169C51.1,284.584,51.048,284.588,50.995,284.588z M44.713,279.624
			c-0.474,0-0.911-0.309-1.052-0.786c-0.422-1.427-0.754-2.914-0.99-4.418c-0.092-0.598,0.317-1.159,0.915-1.253
			c0.589-0.081,1.159,0.315,1.253,0.915c0.221,1.408,0.531,2.8,0.926,4.135c0.171,0.581-0.161,1.191-0.741,1.363
			C44.921,279.609,44.816,279.624,44.713,279.624z M43.35,270.983c-0.589,0-1.076-0.465-1.097-1.058
			c-0.015-0.429-0.021-0.859-0.021-1.294c0.002-1.043,0.041-2.115,0.124-3.212c0.047-0.604,0.583-1.058,1.178-1.011
			c0.604,0.047,1.056,0.574,1.011,1.178c-0.079,1.041-0.118,2.057-0.12,3.047c0,0.407,0.006,0.812,0.021,1.215
			c0.021,0.604-0.452,1.112-1.058,1.136C43.376,270.983,43.363,270.983,43.35,270.983z M44.006,262.248
			c-0.064,0-0.126-0.004-0.191-0.017c-0.596-0.103-0.996-0.671-0.891-1.268c0.129-0.743,0.279-1.498,0.448-2.263
			c0.163-0.733,0.343-1.444,0.536-2.128c0.165-0.583,0.765-0.926,1.356-0.756c0.583,0.167,0.921,0.773,0.756,1.356
			c-0.184,0.645-0.351,1.313-0.506,2.005c-0.165,0.733-0.306,1.453-0.431,2.162C44.991,261.873,44.528,262.248,44.006,262.248z
			 M85.749,257.026c-0.354-0.002-0.713-0.045-1.073-0.124c-0.591-0.131-0.966-0.716-0.836-1.307
			c0.133-0.589,0.713-0.962,1.307-0.836c0.212,0.047,0.418,0.071,0.611,0.073c0.493,0,1.103-0.146,1.393-1.288
			c0.146-0.587,0.737-0.953,1.331-0.795c0.587,0.148,0.945,0.743,0.795,1.331C88.805,255.953,87.519,257.026,85.749,257.026z
			 M81.134,254.779c-0.255,0-0.512-0.088-0.72-0.27c-1.095-0.951-2.138-2.11-3.098-3.445c-0.354-0.493-0.24-1.178,0.251-1.532
			c0.491-0.351,1.176-0.244,1.532,0.251c0.859,1.198,1.787,2.23,2.755,3.072c0.456,0.396,0.506,1.088,0.107,1.547
			C81.745,254.65,81.441,254.779,81.134,254.779z M46.444,253.847c-0.15,0-0.302-0.03-0.448-0.094
			c-0.553-0.249-0.801-0.896-0.555-1.451c0.645-1.442,1.393-2.788,2.226-4.002c0.343-0.497,1.026-0.623,1.526-0.283
			c0.499,0.343,0.626,1.024,0.283,1.526c-0.756,1.103-1.44,2.333-2.029,3.655C47.265,253.604,46.864,253.847,46.444,253.847z
			 M87.063,250.836c-0.336,0-0.671-0.156-0.885-0.45c-0.683-0.932-1.686-1.915-2.901-2.841c-0.48-0.366-0.574-1.056-0.206-1.538
			c0.371-0.484,1.058-0.574,1.538-0.206c1.399,1.067,2.522,2.175,3.338,3.291c0.358,0.489,0.253,1.174-0.238,1.532
			C87.515,250.768,87.288,250.836,87.063,250.836z M75.992,247.736c-0.411,0-0.806-0.231-0.992-0.63
			c-0.647-1.371-1.181-2.815-1.586-4.285c-0.161-0.585,0.184-1.189,0.767-1.35c0.454-0.116,0.911,0.049,1.172,0.403
			c0.281-0.384,0.791-0.551,1.262-0.375c1.429,0.529,2.822,1.153,4.139,1.851c0.536,0.283,0.739,0.947,0.454,1.483
			c-0.283,0.536-0.945,0.739-1.483,0.454c-1.202-0.636-2.475-1.208-3.782-1.697c0.298,0.881,0.645,1.746,1.039,2.582
			c0.259,0.549,0.024,1.202-0.525,1.459C76.309,247.702,76.149,247.736,75.992,247.736z M51.423,246.699
			c-0.294,0-0.587-0.118-0.803-0.351c-0.414-0.444-0.388-1.138,0.058-1.549c1.138-1.058,2.4-1.975,3.75-2.728
			c0.525-0.294,1.196-0.107,1.491,0.424c0.296,0.529,0.105,1.196-0.424,1.491c-1.196,0.666-2.314,1.481-3.325,2.419
			C51.959,246.603,51.691,246.699,51.423,246.699z M59.008,242.452c-0.478,0-0.915-0.313-1.054-0.793
			c-0.167-0.583,0.169-1.191,0.75-1.358c1.436-0.414,2.957-0.688,4.523-0.816c0.598-0.039,1.133,0.399,1.183,1.003
			c0.049,0.604-0.399,1.133-1.003,1.183c-1.423,0.118-2.8,0.366-4.094,0.739C59.209,242.439,59.109,242.452,59.008,242.452z
			 M72.033,242.371c-0.079,0-0.163-0.009-0.244-0.028c-1.403-0.321-2.809-0.54-4.18-0.656c-0.602-0.049-1.052-0.581-1.001-1.185
			c0.051-0.604,0.591-1.035,1.185-1.001c1.472,0.122,2.98,0.36,4.484,0.703c0.591,0.135,0.96,0.722,0.825,1.313
			C72.986,242.026,72.534,242.371,72.033,242.371z M73.674,239.32c-0.557,0-1.035-0.424-1.091-0.992
			c-0.081-0.851-0.126-1.72-0.126-2.61c0.002-0.649,0.024-1.301,0.073-1.96c0.045-0.604,0.578-1.058,1.176-1.013
			c0.604,0.045,1.058,0.572,1.013,1.176c-0.047,0.608-0.066,1.208-0.069,1.802c0,0.812,0.041,1.613,0.118,2.395
			c0.058,0.602-0.384,1.138-0.988,1.198C73.747,239.318,73.71,239.32,73.674,239.32z M74.302,230.608
			c-0.084,0-0.171-0.011-0.257-0.03c-0.589-0.144-0.951-0.735-0.81-1.324c0.351-1.448,0.823-2.905,1.403-4.328
			c0.229-0.563,0.872-0.831,1.429-0.602c0.561,0.229,0.831,0.87,0.602,1.429c-0.54,1.322-0.977,2.674-1.301,4.015
			C75.247,230.272,74.797,230.608,74.302,230.608z M77.591,222.507c-0.189,0-0.379-0.047-0.553-0.15
			c-0.523-0.304-0.701-0.975-0.394-1.5c0.784-1.346,1.66-2.608,2.605-3.745c0.386-0.465,1.078-0.527,1.545-0.144
			c0.467,0.388,0.531,1.078,0.144,1.545c-0.868,1.046-1.675,2.207-2.4,3.45C78.334,222.312,77.968,222.507,77.591,222.507z
			 M83.185,215.807c-0.315,0-0.628-0.135-0.844-0.399c-0.388-0.465-0.321-1.157,0.146-1.543c1.181-0.979,2.462-1.843,3.807-2.569
			c0.529-0.287,1.198-0.092,1.485,0.444c0.289,0.531,0.09,1.198-0.444,1.485c-1.217,0.66-2.378,1.444-3.452,2.329
			C83.68,215.724,83.431,215.807,83.185,215.807z M112.416,212.634c-0.133,0-0.27-0.024-0.401-0.075
			c-0.015-0.006-1.588-0.617-4.06-1.185c-0.589-0.135-0.958-0.724-0.823-1.316c0.133-0.589,0.703-0.962,1.316-0.823
			c2.644,0.606,4.3,1.253,4.369,1.279c0.563,0.223,0.842,0.859,0.621,1.423C113.267,212.371,112.853,212.634,112.416,212.634z
			 M90.849,211.655c-0.465,0-0.898-0.298-1.046-0.765c-0.182-0.578,0.137-1.196,0.713-1.378c1.418-0.45,2.916-0.788,4.454-1.007
			c0.581-0.081,1.153,0.33,1.241,0.932c0.086,0.6-0.332,1.155-0.932,1.241c-1.418,0.201-2.798,0.514-4.099,0.926
			C91.07,211.638,90.958,211.655,90.849,211.655z M103.88,210.648c-0.045,0-0.088-0.002-0.131-0.009
			c-1.431-0.169-2.847-0.255-4.212-0.255c-0.606,0-1.116-0.491-1.116-1.097s0.474-1.097,1.08-1.097c1.487,0,2.991,0.092,4.506,0.272
			c0.602,0.071,1.033,0.617,0.96,1.217C104.902,210.239,104.426,210.648,103.88,210.648z"/>
		<path style="fill:#261D2A;" d="M472.457,180.2c-0.388,0-0.767-0.208-0.964-0.574c-0.289-0.534-0.09-1.2,0.441-1.487
			c1.176-0.636,2.237-1.463,3.158-2.462c0.411-0.448,1.106-0.474,1.549-0.062c0.446,0.409,0.474,1.103,0.062,1.549
			c-1.084,1.176-2.338,2.153-3.724,2.903C472.813,180.157,472.635,180.2,472.457,180.2z M478.36,173.903
			c-0.165,0-0.332-0.036-0.489-0.116c-0.542-0.27-0.763-0.928-0.493-1.47c0.585-1.181,1.058-2.488,1.406-3.891
			c0.146-0.585,0.735-0.943,1.328-0.801c0.587,0.146,0.947,0.739,0.801,1.328c-0.386,1.558-0.913,3.019-1.573,4.341
			C479.15,173.68,478.763,173.903,478.36,173.903z M480.522,165.457c-0.028,0-0.054,0-0.079-0.002
			c-0.606-0.043-1.061-0.568-1.018-1.172c0.049-0.696,0.075-1.403,0.075-2.123c0-0.694-0.024-1.399-0.069-2.113
			c-0.039-0.606,0.42-1.127,1.024-1.166c0.656-0.058,1.127,0.422,1.166,1.024c0.049,0.761,0.073,1.513,0.073,2.254
			c0,0.771-0.026,1.534-0.079,2.278C481.572,165.015,481.092,165.457,480.522,165.457z M479.977,156.721
			c-0.519,0-0.981-0.371-1.078-0.9c-0.251-1.376-0.583-2.772-0.988-4.157c-0.171-0.581,0.163-1.191,0.743-1.361
			c0.587-0.171,1.191,0.165,1.361,0.743c0.426,1.457,0.778,2.929,1.043,4.379c0.107,0.596-0.287,1.168-0.883,1.277
			C480.11,156.715,480.044,156.721,479.977,156.721z M477.528,148.31c-0.435,0-0.848-0.261-1.02-0.69
			c-0.523-1.316-1.118-2.629-1.77-3.904c-0.276-0.54-0.062-1.2,0.478-1.476c0.542-0.272,1.2-0.062,1.476,0.478
			c0.681,1.337,1.307,2.713,1.855,4.09c0.223,0.561-0.051,1.2-0.615,1.425C477.801,148.284,477.663,148.31,477.528,148.31z
			 M426.602,144.562c-0.092,0-0.186-0.011-0.281-0.036c-1.067-0.283-2.113-0.928-3.105-1.915c-0.345-0.343-0.658-0.694-0.936-1.048
			c-0.373-0.476-0.291-1.166,0.186-1.541c0.473-0.371,1.163-0.296,1.54,0.186c0.223,0.285,0.476,0.568,0.756,0.846
			c0.718,0.713,1.429,1.168,2.119,1.35c0.585,0.156,0.934,0.756,0.78,1.341C427.531,144.239,427.088,144.562,426.602,144.562z
			 M430.638,143.416c-0.309,0-0.617-0.131-0.833-0.384c-0.394-0.461-0.341-1.155,0.12-1.547c0.838-0.716,1.65-1.776,2.419-3.156
			c0.291-0.531,0.962-0.718,1.491-0.424c0.529,0.294,0.72,0.962,0.424,1.491c-0.893,1.609-1.873,2.871-2.907,3.756
			C431.144,143.33,430.891,143.416,430.638,143.416z M473.554,140.496c-0.364,0-0.72-0.182-0.928-0.512
			c-0.763-1.213-1.583-2.4-2.44-3.531c-0.366-0.482-0.272-1.17,0.212-1.536c0.478-0.364,1.168-0.272,1.536,0.212
			c0.896,1.181,1.753,2.421,2.548,3.685c0.324,0.514,0.169,1.191-0.343,1.513C473.957,140.442,473.755,140.496,473.554,140.496z
			 M421.543,137.97c-0.578,0-1.061-0.45-1.095-1.033c-0.011-0.169-0.015-0.339-0.015-0.51c0-1.408,0.369-2.847,1.097-4.274
			c0.274-0.544,0.943-0.754,1.474-0.48c0.54,0.274,0.756,0.934,0.48,1.474c-0.568,1.118-0.857,2.222-0.857,3.28
			c0,0.129,0.004,0.255,0.011,0.381c0.036,0.606-0.426,1.125-1.031,1.159C421.586,137.97,421.564,137.97,421.543,137.97z
			 M435.086,135.953c-0.122,0-0.246-0.019-0.366-0.064c-0.572-0.201-0.87-0.829-0.666-1.399c0.456-1.288,0.861-2.665,1.206-4.101
			c0.141-0.587,0.716-0.943,1.324-0.81c0.589,0.141,0.951,0.735,0.81,1.324c-0.362,1.508-0.791,2.961-1.275,4.319
			C435.96,135.673,435.538,135.953,435.086,135.953z M468.258,133.513c-0.298,0-0.596-0.122-0.812-0.36
			c-0.951-1.048-1.967-2.072-3.021-3.045c-0.446-0.411-0.474-1.103-0.062-1.549s1.108-0.474,1.549-0.062
			c1.101,1.016,2.164,2.087,3.158,3.182c0.407,0.448,0.375,1.142-0.075,1.549C468.785,133.419,468.521,133.513,468.258,133.513z
			 M425.13,130.254c-0.281,0-0.564-0.107-0.778-0.324c-0.426-0.429-0.426-1.123,0.004-1.551c1.033-1.028,2.243-1.997,3.597-2.877
			c0.506-0.328,1.187-0.189,1.517,0.321c0.33,0.508,0.186,1.187-0.321,1.517c-1.226,0.799-2.318,1.671-3.246,2.595
			C425.689,130.147,425.41,130.254,425.13,130.254z M461.742,127.664c-0.214,0-0.428-0.062-0.617-0.191
			c-1.168-0.795-2.395-1.502-3.653-2.102c-0.548-0.261-0.78-0.915-0.519-1.461c0.261-0.546,0.915-0.778,1.461-0.519
			c1.361,0.647,2.687,1.412,3.944,2.269c0.501,0.341,0.63,1.024,0.289,1.523C462.436,127.497,462.091,127.664,461.742,127.664z
			 M437.167,127.437c-0.056,0-0.109-0.004-0.165-0.013c-0.6-0.09-1.011-0.649-0.921-1.247c0.105-0.707,0.199-1.423,0.279-2.14
			c-1.204,0.364-2.38,0.801-3.503,1.301c-0.555,0.244-1.2-0.002-1.448-0.557c-0.246-0.553,0.004-1.202,0.557-1.448
			c1.365-0.606,2.8-1.127,4.27-1.545c0.111-0.034,0.236-0.043,0.341-0.043c0.114-0.525,0.651-0.893,1.148-0.861
			c0.604,0.043,1.061,0.568,1.018,1.172c-0.107,1.487-0.272,2.985-0.493,4.448C438.167,127.047,437.7,127.437,437.167,127.437z
			 M453.853,123.906c-0.103,0-0.208-0.015-0.313-0.045c-1.331-0.396-2.719-0.694-4.124-0.891c-0.6-0.084-1.018-0.638-0.934-1.238
			c0.086-0.6,0.656-0.998,1.238-0.934c1.513,0.21,3.008,0.534,4.446,0.96c0.581,0.174,0.911,0.784,0.739,1.365
			C454.764,123.597,454.326,123.906,453.853,123.906z M440.818,123.019c-0.536,0-1.005-0.394-1.084-0.941
			c-0.086-0.6,0.33-1.155,0.93-1.243c1.5-0.216,3.023-0.33,4.523-0.339c0.497-0.024,1.099,0.484,1.103,1.091
			c0.004,0.606-0.484,1.099-1.091,1.103c-1.401,0.009-2.822,0.114-4.223,0.317C440.923,123.014,440.871,123.019,440.818,123.019z
			 M437.781,118.684c-0.6,0-1.091-0.482-1.097-1.084c-0.017-1.466-0.094-2.907-0.231-4.285c-0.06-0.604,0.379-1.14,0.981-1.2
			c0.638-0.062,1.142,0.379,1.2,0.981c0.144,1.442,0.227,2.948,0.244,4.478c0.006,0.606-0.478,1.103-1.084,1.11
			C437.79,118.684,437.786,118.684,437.781,118.684z M390.158,117.056c-0.375,0-0.741-0.193-0.947-0.542
			c-0.306-0.523-0.131-1.193,0.392-1.502c0.801-0.469,1.635-1.466,2.408-2.877c0.291-0.534,0.96-0.724,1.489-0.435
			c0.531,0.291,0.726,0.958,0.435,1.489c-0.977,1.785-2.061,3.036-3.222,3.717C390.54,117.007,390.349,117.056,390.158,117.056z
			 M386.158,116.434c-0.264,0-0.527-0.094-0.737-0.285c-0.238-0.216-0.48-0.461-0.72-0.739c-0.949-1.093-1.56-2.297-1.813-3.576
			c-0.118-0.593,0.268-1.17,0.863-1.288c0.585-0.124,1.172,0.268,1.288,0.863c0.178,0.898,0.621,1.761,1.32,2.563
			c0.18,0.208,0.358,0.392,0.536,0.553c0.448,0.407,0.482,1.101,0.075,1.549C386.754,116.312,386.456,116.434,386.158,116.434z
			 M436.879,109.966c-0.508,0-0.964-0.356-1.071-0.872c-0.302-1.44-0.686-2.811-1.14-4.075c-0.206-0.57,0.092-1.198,0.662-1.403
			c0.566-0.199,1.198,0.09,1.403,0.662c0.488,1.358,0.9,2.828,1.221,4.367c0.124,0.593-0.255,1.174-0.848,1.298
			C437.029,109.96,436.954,109.966,436.879,109.966z M394.681,109.722c-0.114,0-0.229-0.017-0.345-0.056
			c-0.574-0.191-0.887-0.81-0.696-1.386c0.42-1.266,0.793-2.655,1.11-4.124c0.126-0.593,0.728-0.956,1.303-0.842
			c0.591,0.129,0.968,0.711,0.842,1.305c-0.334,1.545-0.728,3.008-1.172,4.352C395.571,109.43,395.142,109.722,394.681,109.722z
			 M384.575,108.456c-0.152,0-0.306-0.032-0.452-0.099c-0.553-0.249-0.797-0.9-0.546-1.451c0.587-1.298,1.485-2.605,2.668-3.889
			c0.407-0.446,1.108-0.474,1.549-0.062c0.446,0.409,0.474,1.103,0.062,1.549c-1.022,1.11-1.789,2.222-2.282,3.306
			C385.391,108.216,384.993,108.456,384.575,108.456z M390.311,101.927c-0.33,0-0.658-0.15-0.874-0.433
			c-0.366-0.482-0.272-1.172,0.21-1.538c1.148-0.872,2.417-1.712,3.773-2.496c0.521-0.304,1.193-0.126,1.5,0.399
			c0.304,0.525,0.124,1.196-0.398,1.5c-1.279,0.739-2.47,1.53-3.546,2.346C390.775,101.854,390.542,101.927,390.311,101.927z
			 M433.861,101.771c-0.375,0-0.739-0.193-0.945-0.54c-0.733-1.243-1.573-2.331-2.496-3.237c-0.431-0.424-0.439-1.118-0.013-1.551
			c0.422-0.431,1.116-0.439,1.551-0.013c1.058,1.039,2.016,2.28,2.847,3.687c0.309,0.521,0.135,1.193-0.388,1.502
			C434.244,101.721,434.051,101.771,433.861,101.771z M396.567,101.156c-0.047,0-0.094-0.002-0.144-0.009
			c-0.6-0.077-1.024-0.628-0.947-1.23c0.182-1.406,0.315-2.85,0.394-4.289c0.034-0.604,0.561-1.078,1.155-1.035
			c0.398,0.021,0.735,0.253,0.908,0.581c1.198-0.525,2.425-1.007,3.657-1.436c0.576-0.193,1.198,0.107,1.397,0.677
			c0.197,0.572-0.105,1.198-0.677,1.397c-1.348,0.467-2.689,1.003-3.985,1.588c-0.126,0.058-0.257,0.09-0.386,0.096
			c-0.077,0.908-0.174,1.813-0.287,2.704C397.58,100.753,397.109,101.156,396.567,101.156z M427.63,95.78
			c-0.167,0-0.336-0.039-0.495-0.118c-1.193-0.602-2.5-1.095-3.884-1.466c-0.587-0.156-0.934-0.758-0.778-1.343
			c0.159-0.585,0.756-0.923,1.343-0.778c1.532,0.411,2.98,0.958,4.309,1.628c0.54,0.272,0.756,0.932,0.484,1.474
			C428.416,95.559,428.031,95.78,427.63,95.78z M406.155,94.614c-0.493,0-0.941-0.334-1.065-0.833
			c-0.146-0.587,0.212-1.183,0.801-1.328c1.474-0.366,2.957-0.662,4.407-0.876c0.585-0.099,1.159,0.321,1.245,0.923
			c0.09,0.598-0.324,1.157-0.923,1.245c-1.38,0.206-2.794,0.489-4.202,0.838C406.331,94.604,406.241,94.614,406.155,94.614z
			 M419.216,93.468c-0.036,0-0.071-0.002-0.107-0.004c-1.018-0.099-2.042-0.137-3.098-0.139c-0.379,0-0.756,0.009-1.136,0.024
			c-0.675,0.015-1.114-0.45-1.14-1.054c-0.024-0.604,0.448-1.116,1.054-1.14c0.452-0.015,0.887-0.015,1.356-0.024
			c1.069,0,2.138,0.049,3.173,0.148c0.602,0.058,1.046,0.593,0.988,1.198C420.251,93.044,419.773,93.468,419.216,93.468z
			 M397.038,92.399c-0.594,0-1.082-0.474-1.097-1.071c-0.034-1.474-0.126-2.918-0.272-4.289c-0.064-0.602,0.371-1.142,0.975-1.206
			c0.561-0.066,1.142,0.371,1.206,0.975c0.152,1.431,0.249,2.935,0.285,4.469c0.013,0.606-0.465,1.108-1.071,1.123
			C397.055,92.399,397.047,92.399,397.038,92.399z M396.076,83.687c-0.506,0-0.962-0.354-1.071-0.87
			c-0.306-1.455-0.69-2.828-1.138-4.084c-0.204-0.57,0.094-1.198,0.664-1.401c0.574-0.21,1.198,0.092,1.401,0.664
			c0.482,1.348,0.891,2.817,1.219,4.367c0.124,0.593-0.253,1.174-0.846,1.301C396.228,83.679,396.153,83.687,396.076,83.687z
			 M393.077,75.479c-0.377,0-0.743-0.195-0.949-0.544c-0.726-1.251-1.56-2.344-2.477-3.244c-0.433-0.424-0.437-1.118-0.013-1.551
			c0.426-0.433,1.121-0.437,1.551-0.013c1.054,1.037,2.01,2.284,2.837,3.702c0.304,0.525,0.126,1.196-0.396,1.502
			C393.456,75.432,393.265,75.479,393.077,75.479z M357.754,70.712c-0.339,0-0.673-0.156-0.887-0.452
			c-0.358-0.489-0.251-1.174,0.238-1.53c0.06-0.045,1.528-1.11,4.019-2.254c0.555-0.257,1.2-0.013,1.455,0.538
			c0.253,0.551,0.013,1.202-0.538,1.455c-2.275,1.046-3.63,2.023-3.642,2.033C358.204,70.643,357.977,70.712,357.754,70.712z
			 M386.876,69.446c-0.186,0-0.373-0.047-0.544-0.144c-1.238-0.709-2.518-1.316-3.807-1.808c-0.566-0.214-0.848-0.848-0.632-1.416
			c0.216-0.566,0.844-0.848,1.416-0.632c1.393,0.531,2.777,1.187,4.112,1.95c0.527,0.302,0.709,0.973,0.409,1.498
			C387.626,69.246,387.255,69.446,386.876,69.446z M365.69,67.024c-0.474,0-0.911-0.309-1.052-0.784
			c-0.171-0.581,0.159-1.191,0.739-1.365c1.468-0.435,2.963-0.758,4.45-0.96c0.583-0.109,1.153,0.336,1.234,0.938
			c0.081,0.6-0.339,1.153-0.938,1.234c-1.376,0.189-2.762,0.489-4.12,0.891C365.898,67.009,365.793,67.024,365.69,67.024z
			 M378.708,66.343c-0.073,0-0.144-0.006-0.216-0.021c-1.367-0.272-2.77-0.429-4.172-0.467c-0.606-0.017-1.084-0.521-1.067-1.127
			c0.017-0.606,0.495-1.091,1.127-1.067c1.523,0.043,3.051,0.214,4.54,0.51c0.594,0.118,0.979,0.696,0.861,1.29
			C379.679,65.981,379.221,66.343,378.708,66.343z"/>
		<g>
			<path style="fill:#76AEA6;" d="M76.986,391.018c0,0,338.517-2.792,344.353,0s39.396,96.319,36.478,100.506
				s-418.768,2.792-418.768-2.792S76.986,391.018,76.986,391.018z"/>
			<g>
				<path style="fill:#FFFFFF;" d="M395.5,427.469c0,0,15.459-0.997,15.958,0.374c0.499,1.371,12.093,31.791,8.976,34.285
					s-26.43,2.992-30.669,0.499C385.526,460.133,394.378,426.845,395.5,427.469z"/>
				<path style="fill:#212438;" d="M390.763,415.75c0,0,22.839-2.841,24.345,0.171s-2.143,9.663-3.649,11.922
					c0,0-11.035,1.633-15.177,0.88C392.139,427.969,383.985,416.126,390.763,415.75z"/>
				<path style="fill:#FFFFFF;" d="M395.197,417.95c0,0,2.005-0.702,2.706,0.401c0.702,1.103-1.403,1.905-2.506,1.203
					C394.294,418.852,394.094,418.05,395.197,417.95z"/>
				<path style="fill:#FFFFFF;" d="M401.43,416.579c0,0,2.005-0.702,2.706,0.401c0.702,1.103-1.403,1.905-2.506,1.203
					C400.528,417.481,400.328,416.679,401.43,416.579z"/>
				<path style="fill:#FFFFFF;" d="M398.189,420.942c0,0,2.005-0.702,2.706,0.401c0.702,1.103-1.403,1.905-2.506,1.203
					C397.287,421.844,397.086,421.042,398.189,420.942z"/>
				<path style="fill:#FFFFFF;" d="M405.046,421.192c0,0,2.005-0.702,2.706,0.401c0.702,1.103-1.403,1.905-2.506,1.203
					S403.943,421.292,405.046,421.192z"/>
				<path style="fill:#FFFFFF;" d="M408.038,418.449c0,0,2.005-0.702,2.706,0.401c0.702,1.103-1.403,1.905-2.506,1.203
					C407.136,419.351,406.935,418.549,408.038,418.449z"/>
				<path style="fill:#261D2A;" d="M415.503,454.634c-0.467,0-0.898-0.298-1.046-0.767c-1.446-4.574-5.183-19.283-5.341-19.907
					c-0.15-0.587,0.206-1.185,0.793-1.333c0.591-0.154,1.183,0.206,1.333,0.793c0.039,0.152,3.88,15.27,5.307,19.787
					c0.182,0.576-0.137,1.193-0.716,1.376C415.724,454.617,415.612,454.634,415.503,454.634z"/>
			</g>
			<g>
				<path style="fill:#FFFFFF;" d="M351.62,411.014c0,0,15.459-0.997,15.958,0.374c0.499,1.371,12.093,31.791,8.976,34.285
					s-26.43,2.992-30.669,0.499C341.646,443.678,350.498,410.39,351.62,411.014z"/>
				<path style="fill:#212438;" d="M346.883,399.295c0,0,22.839-2.841,24.345,0.171c1.506,3.012-2.143,9.663-3.649,11.922
					c0,0-11.035,1.633-15.177,0.88C348.259,411.514,340.105,399.671,346.883,399.295z"/>
				<path style="fill:#FFFFFF;" d="M351.317,401.495c0,0,2.005-0.702,2.706,0.401s-1.403,1.905-2.506,1.203
					C350.414,402.397,350.214,401.595,351.317,401.495z"/>
				<path style="fill:#FFFFFF;" d="M357.55,400.124c0,0,2.005-0.702,2.706,0.401s-1.403,1.905-2.506,1.203
					S356.448,400.224,357.55,400.124z"/>
				<path style="fill:#FFFFFF;" d="M354.309,404.487c0,0,2.005-0.702,2.706,0.401c0.702,1.103-1.403,1.905-2.506,1.203
					C353.407,405.389,353.206,404.587,354.309,404.487z"/>
				<path style="fill:#FFFFFF;" d="M361.166,404.737c0,0,2.005-0.702,2.706,0.401c0.702,1.103-1.403,1.905-2.506,1.203
					S360.063,404.837,361.166,404.737z"/>
				<path style="fill:#FFFFFF;" d="M364.158,401.994c0,0,2.005-0.702,2.706,0.401s-1.403,1.905-2.506,1.203
					S363.055,402.094,364.158,401.994z"/>
				<path style="fill:#261D2A;" d="M371.623,438.179c-0.467,0-0.898-0.298-1.046-0.767c-1.446-4.574-5.183-19.283-5.341-19.907
					c-0.15-0.587,0.206-1.185,0.793-1.333c0.589-0.156,1.185,0.206,1.333,0.793c0.039,0.152,3.88,15.27,5.307,19.787
					c0.182,0.576-0.137,1.193-0.716,1.376C371.844,438.162,371.732,438.179,371.623,438.179z"/>
			</g>
			<g>
				<path style="fill:#212438;" d="M110.695,407.405c0,0,165.281-5.851,169.669,1.463c4.388,7.313,14.627,70.208,14.627,70.208
					s-198.923,2.925-200.385-4.388C93.143,467.375,110.695,407.405,110.695,407.405z"/>
			</g>
			<path style="fill:#261D2A;" d="M201.181,447.27c-26.872,0.002-54.391-6.689-71.83-16.802
				c-28.021-16.251-19.971-32.066-19.613-32.732c0.285-0.533,0.953-0.739,1.485-0.448c0.531,0.285,0.733,0.947,0.45,1.481l0,0
				c-0.309,0.591-7.3,14.674,18.78,29.801c27.464,15.932,80.351,23.236,115.311,8.712c21.113-8.77,35.91-21.391,39.582-33.765
				c1.371-4.622,0.983-8.692-1.125-11.773c-0.341-0.499-0.212-1.183,0.287-1.526c0.497-0.339,1.181-0.214,1.526,0.287
				c2.458,3.591,2.959,8.435,1.416,13.638c-3.859,12.999-19.129,26.144-40.846,35.166
				C233.255,444.853,217.334,447.27,201.181,447.27z"/>
			<g>
				<path style="fill:#DBB521;" d="M223.725,194.469c0,0,7.427,5.882,3.173,24.723c-4.255,18.841-20.977,37.156-16.115,42.626
					c4.862,5.47,46.468-13,47.935-11.265c1.468,1.735,2.525-24.062,1.917-25.885c-0.608-1.823-22.797-14.593-29.483-29.788
					L223.725,194.469z"/>
				<g>
					<path style="fill:#CC784B;" d="M305.422,244.674l-2.483-30.535c6.326-5.099,9.775-10.763,11.597-15.874
						c0.635,0.271,1.346,0.47,2.151,0.578c12.398,1.665,20.179-15.038,16.077-27.95c-2.612-8.223-9.886-4.392-14.828-0.525
						c2.242-18.799,3.83-52.735-13.659-54.186c0,0-51.053-17.876-68.301,7.042c-4.606,6.654-7.609,24.008-7.921,41.224
						c-4.091-3.521-9.141-5.714-12.282,0.665c-5.985,12.153-0.789,29.832,11.718,30.039c1.398,0.023,2.562-0.262,3.547-0.764
						c5.256,19.068,16.71,27.286,27.571,30.343c1.216,10.427,1.957,22.016-0.36,24.332c-4.388,4.388-42.783,23.037-42.783,23.037
						s61.798,69.477,133.468-2.925C348.936,269.174,313.101,250.159,305.422,244.674z"/>
					<path style="fill:#261D2A;" d="M228.692,185.162c-0.429,0-0.838-0.253-1.013-0.675c-2.162-5.185-4.958-9.967-5.986-10.237
						c-0.666,0.019-1.753,2.965-2.1,5.841c-0.071,0.604-0.615,1.056-1.219,0.958c-0.602-0.073-1.031-0.619-0.958-1.219
						c0.216-1.806,1.17-7.698,4.281-7.769c0.011,0,0.021,0,0.032,0c2.738,0,6.171,7.248,7.977,11.583
						c0.231,0.559-0.032,1.202-0.591,1.436C228.977,185.134,228.833,185.162,228.692,185.162z"/>
				</g>
				<path style="fill:#CC784B;" d="M407.991,261.678c0,0,72.664-1.226,75.591,32.142c4.472,50.98-103.565,69.33-98.08,73.718
					c5.485,4.388,30.716-13.164,29.619-7.679c-1.097,5.485-14.261,13.164-14.261,13.164s18.649-10.97,18.649-6.582
					s-16.455,14.261-16.455,14.261s21.245-8.628,18.649-2.194c-8.41,20.843-47.902,14.992-54.484,10.604s-3.657-35.835,1.828-41.32
					c5.485-5.485,62.529-37.664,62.529-39.492l-21.392-0.548C409.088,300.073,407.991,261.678,407.991,261.678z"/>
				<path style="fill:#261D2A;" d="M290.931,185.745c-0.36,0-0.698-0.12-0.979-0.351c-1.975-1.62-2.059-11.548-1.935-17.321
					c0.013-0.606,0.566-1.082,1.121-1.073c0.606,0.013,1.086,0.514,1.073,1.121c-0.133,6.134,0.193,13.256,0.943,15.204
					c1.609-1.431,5.393-8.078,8.275-14.006c0.264-0.544,0.921-0.773,1.466-0.508c0.544,0.266,0.771,0.921,0.506,1.468
					c-2.685,5.524-7.565,14.874-10.104,15.429C291.173,185.732,291.051,185.745,290.931,185.745z"/>
				<path style="fill:#261D2A;" d="M251.279,183.851c-0.444,0-0.859-0.223-1.146-0.626c-1.558-2.183-5.716-15.064-6.186-16.528
					c-0.184-0.576,0.133-1.193,0.711-1.38c0.572-0.18,1.193,0.133,1.38,0.711c1.534,4.784,3.979,11.938,5.305,14.837
					c1.091-2.548,2.862-9.357,4.135-15.352c0.126-0.596,0.72-0.96,1.301-0.846c0.593,0.126,0.973,0.709,0.846,1.301
					c-3.685,17.357-5.354,17.704-6.066,17.852C251.465,183.84,251.371,183.851,251.279,183.851z"/>
				<path style="fill:#261D2A;" d="M317.159,188.798c-0.195,0-0.39-0.051-0.568-0.159c-0.518-0.315-0.683-0.99-0.371-1.506
					c2.443-4.032,6.865-10.769,9.65-10.254c3.066,0.531,3.126,6.503,3.072,8.32c-0.019,0.606-0.469,1.08-1.129,1.065
					c-0.606-0.019-1.082-0.525-1.065-1.129c0.086-2.95-0.536-5.969-1.256-6.096c-1.005,0.118-4.484,4.429-7.396,9.23
					C317.891,188.609,317.529,188.798,317.159,188.798z"/>
				<circle style="fill:#C35041;" cx="300.104" cy="196.263" r="8.268"/>
				<circle style="fill:#C35041;" cx="272.405" cy="206.959" r="8.268"/>
				<circle style="fill:#C35041;" cx="245.682" cy="196.251" r="8.268"/>
				<path style="fill:#261D2A;" d="M274.673,192.952c-0.079,0-0.161-0.009-0.242-0.028c-1.843-0.414-7.118-1.543-9.003-1.438
					c-0.576-0.039-0.923-0.199-1.232-0.591c-1.68-2.117,1.174-14.417,3.023-21.559c0.152-0.585,0.743-0.938,1.337-0.788
					c0.587,0.152,0.941,0.752,0.788,1.337c-2.057,7.94-3.887,17.267-3.484,19.412c2.873,0.101,8.789,1.429,9.055,1.489
					c0.591,0.133,0.962,0.72,0.827,1.311C275.629,192.607,275.177,192.952,274.673,192.952z"/>
				<path style="fill:#261D2A;" d="M270.926,211.503c-3.222,0-5.905-4.034-8.437-12.688c-0.171-0.583,0.163-1.191,0.743-1.361
					c0.589-0.176,1.191,0.165,1.361,0.743c2.948,10.072,5.406,11.088,6.363,11.111c2.7-0.045,5.815-7.48,7.163-12.744
					c0.15-0.585,0.743-0.941,1.335-0.791c0.587,0.15,0.941,0.748,0.791,1.335c-0.613,2.387-3.934,14.304-9.252,14.394
					C270.971,211.503,270.948,211.503,270.926,211.503z"/>
				<path style="fill:#261D2A;" d="M271.648,228.159c-6.477,0-13.404-1.538-19.817-6.046c-0.495-0.349-0.613-1.033-0.266-1.53
					c0.351-0.493,1.033-0.615,1.53-0.266c18.917,13.314,42.939-1.02,43.182-1.163c0.521-0.317,1.193-0.15,1.506,0.366
					c0.315,0.516,0.152,1.191-0.364,1.506C297.246,221.132,285.485,228.159,271.648,228.159z"/>
				<path style="fill:#DBB521;" d="M252.217,109.743c0,0-3.291,9.873,16.455,27.425s45.545,30.692,48.287,34.532
					c2.743,3.839,13.528-6.026,15.805-0.807c2.277,5.219-1.281,19.428-6.217,23.816c-4.936,4.388-11.265,2.636-12.224,3.355
					c-3.427,2.57-11.984,16.777-11.984,16.777c-0.548,4.388,0.453,28.951,3.631,32.026c5.668,5.485,57.043,6.354,69.294,3.291
					c2.925-0.731,10.239-14.261-4.571-42.235c-14.809-27.973,2.011-36.384-7.862-68.197c-9.873-31.813-48.085-62.895-85.932-56.861
					s-57.044,27.425-61.432,52.107s4.936,34.556,11.518,32.362S246.184,121.81,252.217,109.743z"/>
				<path style="fill:#C35041;" d="M407.443,255.278c-2.925-1.463-89.223-10.604-96.536-8.41c0,0-6.033,38.943-36.201,28.522
					c-18.461-6.377-16.455-26.328-16.455-26.328s-33.062,6.36-50.941,14.376c-12.788,4.464-27.001,10.361-31.883,15.243
					c0,0,8.228,57.044,13.713,61.432c2.565,2.052,9.926,0.266,17.038-2.217c4.35,27.154,9.349,52.109,13.678,50.485
					c8.776-3.291,140.782,3.291,142.976,2.194c1.281-0.641,5.427-43.154,7.785-80.179c10.69,0.669,38.571,2.235,39.752,0.463
					C411.831,308.666,410.368,256.741,407.443,255.278z"/>
				<path style="fill:#261D2A;" d="M281.933,284.723c-0.223,0-0.446-0.004-0.671-0.009c-23.243-0.568-24.644-25.477-24.655-25.73
					c-0.028-0.604,0.439-1.116,1.043-1.144c0.583-0.073,1.121,0.439,1.146,1.043c0.045,0.945,1.333,23.121,22.516,23.637
					c0.206,0.004,0.411,0.009,0.613,0.009c20.92,0,28.398-26.358,28.471-26.628c0.163-0.585,0.758-0.923,1.35-0.767
					c0.583,0.161,0.928,0.765,0.767,1.35C312.434,256.769,304.494,284.723,281.933,284.723z"/>
				<path style="fill:#261D2A;" d="M354.238,343.404c-0.294,0-0.587-0.118-0.803-0.349c-0.411-0.444-0.388-1.138,0.056-1.551
					c23.131-21.552,9.22-42.667,8.617-43.556c-0.341-0.499-0.212-1.183,0.289-1.523c0.497-0.343,1.181-0.212,1.523,0.287
					c0.159,0.234,15.604,23.532-8.935,46.4C354.774,343.308,354.506,343.404,354.238,343.404z"/>
				<path style="fill:#261D2A;" d="M220.953,349.986c-0.165,0-0.332-0.036-0.491-0.116c-22.452-11.227-16.005-40.426-15.936-40.72
					c0.137-0.594,0.739-0.956,1.316-0.823c0.589,0.137,0.958,0.724,0.823,1.316c-0.064,0.276-6.119,27.815,14.78,38.264
					c0.542,0.272,0.761,0.93,0.491,1.472C221.741,349.763,221.353,349.986,220.953,349.986z"/>
				<path style="fill:#261D2A;" d="M321.99,155.459c-0.424,0-0.829-0.249-1.009-0.664c-3.458-8.067-16.247-16.061-29.748-18.593
					c-27.671-5.187-29.733-29.047-29.752-29.289c-0.043-0.602,0.409-1.127,1.013-1.172c0.602-0.045,1.129,0.407,1.176,1.011
					c0.069,0.913,1.993,22.424,27.965,27.294c14.158,2.655,27.641,11.204,31.363,19.883c0.238,0.557-0.019,1.202-0.576,1.442
					C322.282,155.432,322.136,155.459,321.99,155.459z"/>
				<path style="fill:#261D2A;" d="M225.797,154.894c-0.429,0-0.838-0.253-1.013-0.675c-8.729-20.948,9.822-34.013,10.01-34.144
					c0.499-0.341,1.181-0.216,1.523,0.283c0.345,0.497,0.219,1.181-0.281,1.526c-0.707,0.489-17.265,12.206-9.226,31.492
					c0.231,0.559-0.032,1.202-0.591,1.436C226.082,154.866,225.938,154.894,225.797,154.894z"/>
				<path style="fill:#261D2A;" d="M340.097,172.435c-0.116,0-0.231-0.017-0.347-0.056c-0.574-0.193-0.885-0.814-0.694-1.388
					c7.711-23.133-19.138-39.563-34.41-45.018c-16.029-5.723-28.888-26.735-29.428-27.626c-0.313-0.519-0.148-1.193,0.371-1.506
					c0.518-0.309,1.193-0.148,1.506,0.371c0.129,0.212,13.001,21.237,28.288,26.697c15.973,5.704,44.002,23.031,35.755,47.777
					C340.984,172.144,340.556,172.435,340.097,172.435z"/>
				<path style="fill:#261D2A;" d="M356.507,157.724c-0.011,0-0.024,0-0.036,0c-0.606-0.021-1.08-0.527-1.061-1.133
					c0.581-17.396-13.042-36.818-31.01-44.219c-19.23-7.917-32.494-21.619-32.627-21.756c-0.418-0.437-0.403-1.131,0.034-1.551
					c0.437-0.42,1.131-0.403,1.551,0.034c0.129,0.133,13.091,13.509,31.877,21.246c18.758,7.724,32.976,28.07,32.368,46.318
					C357.583,157.257,357.096,157.724,356.507,157.724z"/>
				<path style="fill:#261D2A;" d="M368.39,243.166c-0.221,0-0.444-0.066-0.638-0.204c-0.493-0.354-0.606-1.039-0.255-1.532
					c5.052-7.073-0.347-15.422-12.986-31.502c-4.684-5.963-6.676-11.566-5.922-16.656c0.844-5.699,4.855-8.566,5.024-8.684
					c0.499-0.349,1.176-0.225,1.526,0.266c0.347,0.495,0.229,1.178-0.264,1.528c-0.034,0.026-3.435,2.492-4.122,7.255
					c-0.645,4.461,1.202,9.485,5.485,14.938c12.155,15.467,19.29,25.392,13.046,34.133
					C369.069,243.007,368.73,243.166,368.39,243.166z"/>
				<path style="fill:#261D2A;" d="M345.756,248.259c-0.379,0-0.75-0.199-0.953-0.553c-0.3-0.525-0.118-1.196,0.409-1.498
					c2.682-1.532,3.595-4.461,3.889-6.648c0.821-6.132-1.982-14.383-6.383-18.784c-7.071-7.068-6.025-20.661-5.976-21.237
					c0.049-0.604,0.636-1.031,1.183-1.001c0.604,0.049,1.052,0.581,1.003,1.183c-0.011,0.131-1.005,13.16,5.341,19.504
					c4.832,4.832,7.908,13.892,7.006,20.627c-0.514,3.84-2.235,6.698-4.975,8.264C346.128,248.212,345.942,248.259,345.756,248.259z
					"/>
				<path style="fill:#261D2A;" d="M325.384,242.6c-0.191,0-0.381-0.049-0.557-0.152c-10.139-5.965-6.895-28.447-6.751-29.4
					c0.09-0.602,0.658-1.018,1.247-0.921c0.598,0.09,1.011,0.647,0.921,1.247c-0.032,0.219-3.173,21.968,5.697,27.185
					c0.521,0.306,0.696,0.979,0.388,1.502C326.125,242.407,325.759,242.6,325.384,242.6z"/>
				<path style="fill:#261D2A;" d="M237.956,246.868c-0.347,0-0.69-0.165-0.902-0.474c-5.23-7.553,2.32-24.492,2.644-25.21
					c0.253-0.553,0.898-0.788,1.453-0.548c0.551,0.251,0.797,0.9,0.549,1.453c-0.075,0.163-7.368,16.519-2.841,23.058
					c0.345,0.497,0.221,1.181-0.279,1.526C238.391,246.806,238.173,246.868,237.956,246.868z"/>
				<g>
					<path style="fill:#CC784B;" d="M176.766,286.38c-1.692,1.41-3.132,2.141-7.802,4.136c-1.479-6.88-5.474-12.866-9.077-18.052
						c-7.496-10.787-27.242,0.731-27.242,0.731s-9.361,7.1-9.971,13.093c-12.163,19.227-40.447,69.786-15.808,90.025
						c10.856,8.917,76.79-38.761,81.178-38.395C188.043,337.919,177.801,294.291,176.766,286.38z"/>
				</g>
				<path style="fill:#261D2A;" d="M123.32,360.956c-0.195,0-0.39-0.051-0.568-0.159c-0.519-0.315-0.683-0.99-0.371-1.506
					c0.219-0.362,21.865-36.162,23.997-46.817c0.12-0.598,0.726-0.981,1.29-0.861c0.596,0.118,0.981,0.696,0.861,1.29
					c-2.207,11.032-23.371,46.04-24.271,47.525C124.052,360.768,123.69,360.956,123.32,360.956z"/>
				<path style="fill:#261D2A;" d="M146.357,279.778c-0.244,0-0.489-0.079-0.692-0.246c-0.469-0.381-0.542-1.071-0.159-1.543
					c0.133-0.163,3.321-4.022,8.339-4.437c3.304-0.27,6.556,0.99,9.693,3.758c0.454,0.401,0.497,1.095,0.096,1.549
					c-0.401,0.452-1.093,0.497-1.549,0.096c-2.668-2.355-5.384-3.452-8.058-3.216c-4.099,0.339-6.792,3.602-6.82,3.634
					C146.991,279.639,146.676,279.778,146.357,279.778z"/>
				<path style="fill:#261D2A;" d="M149.648,288.006c-0.315,0-0.63-0.137-0.846-0.401c-0.386-0.467-0.319-1.157,0.15-1.543
					c3.501-2.888,11.649-6.689,17.408-0.446c0.411,0.446,0.384,1.138-0.062,1.549c-0.441,0.414-1.138,0.386-1.549-0.062
					c-5.813-6.293-14.055,0.366-14.405,0.651C150.14,287.924,149.894,288.006,149.648,288.006z"/>
				<path style="fill:#261D2A;" d="M152.39,300.073c-0.332,0-0.662-0.152-0.878-0.439c-0.362-0.484-0.264-1.172,0.221-1.536
					c0.568-0.424,13.997-10.377,20.082-4.285c0.429,0.428,0.429,1.123,0,1.551c-0.429,0.429-1.123,0.429-1.551,0
					c-3.953-3.953-13.766,1.903-17.216,4.491C152.851,300.002,152.619,300.073,152.39,300.073z"/>
				<path style="fill:#261D2A;" d="M422.801,317.076c-0.21,0-0.422-0.06-0.608-0.184c-0.504-0.336-0.641-1.018-0.304-1.521
					c3.01-4.519,25.019-14.612,27.517-15.748c0.553-0.246,1.202-0.009,1.453,0.544c0.251,0.553,0.006,1.202-0.544,1.453
					c-9.588,4.358-24.582,11.941-26.6,14.968C423.501,316.905,423.154,317.076,422.801,317.076z"/>
				<path style="fill:#261D2A;" d="M389.891,377.045c-0.606,0-1.097-0.491-1.097-1.097c0-0.604,0.491-1.097,1.097-1.097
					c0.122,0,12.339-0.105,18.148-7.617c0.373-0.482,1.063-0.566,1.538-0.197c0.48,0.371,0.568,1.058,0.197,1.538
					C403.301,376.948,390.435,377.045,389.891,377.045z"/>
				<path style="fill:#261D2A;" d="M393.548,383.627c-0.606,0-1.097-0.491-1.097-1.097c0-0.604,0.491-1.097,1.097-1.097
					c0.139,0,14.027-0.099,18.051-7.471c0.289-0.533,0.956-0.731,1.487-0.437c0.531,0.289,0.728,0.956,0.437,1.487
					C408.878,383.528,394.171,383.627,393.548,383.627z"/>
				<g>
					<path style="fill:#261D2A;" d="M374.004,267.42c-0.462,0.079-0.94-0.146-1.163-0.585c-0.724-1.425-1.562-2.232-2.493-2.399
						c-1.366-0.245-2.653,0.906-2.665,0.917c-0.441,0.41-1.139,0.384-1.55-0.062c-0.411-0.445-0.384-1.139,0.061-1.55
						c0.085-0.078,2.087-1.902,4.54-1.464c1.644,0.295,3.01,1.494,4.062,3.565c0.275,0.54,0.06,1.201-0.482,1.475
						C374.214,267.368,374.109,267.402,374.004,267.42z"/>
					<path style="fill:#261D2A;" d="M363.414,274.83c-0.462,0.079-0.94-0.146-1.163-0.585c-0.724-1.425-1.563-2.232-2.493-2.399
						c-1.366-0.247-2.654,0.905-2.665,0.917c-0.443,0.408-1.139,0.384-1.55-0.062c-0.411-0.445-0.384-1.139,0.061-1.55
						c0.085-0.078,2.092-1.902,4.54-1.464c1.644,0.295,3.01,1.494,4.062,3.565c0.275,0.54,0.06,1.201-0.482,1.475
						C363.625,274.778,363.52,274.812,363.414,274.83z"/>
					<path style="fill:#261D2A;" d="M375.557,276.167c-0.462,0.079-0.94-0.146-1.163-0.585c-0.724-1.425-1.563-2.232-2.493-2.399
						c-1.363-0.244-2.653,0.906-2.664,0.918c-0.441,0.41-1.139,0.384-1.55-0.062c-0.411-0.445-0.384-1.139,0.061-1.55
						c0.085-0.076,2.098-1.904,4.54-1.465c1.644,0.295,3.01,1.494,4.062,3.565c0.275,0.54,0.06,1.201-0.482,1.475
						C375.768,276.114,375.663,276.149,375.557,276.167z"/>
					<path style="fill:#261D2A;" d="M396.429,273.599c-0.462,0.079-0.94-0.146-1.163-0.585c-0.724-1.425-1.562-2.232-2.491-2.399
						c-1.374-0.242-2.656,0.906-2.667,0.917c-0.443,0.409-1.138,0.385-1.55-0.062c-0.411-0.445-0.384-1.14,0.061-1.55
						c0.085-0.078,2.096-1.904,4.542-1.464c1.644,0.296,3.01,1.495,4.06,3.566c0.275,0.541,0.058,1.201-0.482,1.475
						C396.64,273.547,396.535,273.581,396.429,273.599z"/>
					<path style="fill:#261D2A;" d="M387.285,268.07c-0.462,0.079-0.94-0.146-1.163-0.585c-0.724-1.425-1.562-2.231-2.493-2.398
						c-1.364-0.248-2.654,0.905-2.665,0.917c-0.443,0.409-1.139,0.384-1.55-0.062c-0.411-0.445-0.384-1.139,0.061-1.55
						c0.085-0.078,2.1-1.906,4.54-1.464c1.644,0.295,3.01,1.493,4.062,3.564c0.275,0.54,0.06,1.201-0.48,1.474
						C387.496,268.018,387.391,268.052,387.285,268.07z"/>
					<path style="fill:#261D2A;" d="M387.742,276.554c-0.467,0.08-0.947-0.15-1.169-0.594c-0.975-1.974-2.049-3.108-3.102-3.278
						c-0.975-0.159-1.743,0.571-1.753,0.579c-0.425,0.427-1.119,0.435-1.551,0.006c-0.43-0.427-0.433-1.121-0.005-1.552
						c0.061-0.063,1.546-1.545,3.66-1.198c1.809,0.294,3.397,1.798,4.719,4.47c0.267,0.543,0.045,1.202-0.498,1.47
						C387.947,276.503,387.843,276.536,387.742,276.554z"/>
					<path style="fill:#261D2A;" d="M352.175,266.644c-0.268,0.046-0.556-0.007-0.799-0.172c-0.502-0.34-0.634-1.022-0.296-1.523
						c0.073-0.108,1.784-2.607,4.59-3.053c1.604-0.24,3.185,0.256,4.694,1.476c0.472,0.381,0.546,1.072,0.164,1.544
						c-0.38,0.469-1.072,0.543-1.541,0.164c-1.027-0.83-2.005-1.161-2.993-1.014c-1.824,0.331-3.08,2.094-3.095,2.111
						C352.723,266.435,352.46,266.596,352.175,266.644z"/>
				</g>
				<g>
					<path style="fill:#261D2A;" d="M214.935,272.232c-0.444,0.152-0.951,0.006-1.241-0.392c-0.942-1.291-1.898-1.955-2.844-1.971
						c-1.388-0.025-2.475,1.318-2.484,1.33c-0.37,0.475-1.063,0.561-1.54,0.186c-0.477-0.374-0.561-1.063-0.187-1.54
						c0.071-0.09,1.757-2.21,4.249-2.169c1.67,0.029,3.21,0.995,4.579,2.872c0.358,0.489,0.25,1.176-0.241,1.533
						C215.135,272.147,215.036,272.198,214.935,272.232z"/>
					<path style="fill:#261D2A;" d="M205.662,281.236c-0.444,0.152-0.951,0.006-1.241-0.392c-0.942-1.291-1.898-1.955-2.844-1.971
						c-1.388-0.026-2.475,1.317-2.484,1.33c-0.372,0.474-1.063,0.561-1.54,0.186c-0.477-0.374-0.561-1.063-0.187-1.54
						c0.071-0.09,1.762-2.212,4.249-2.169c1.67,0.029,3.21,0.996,4.579,2.872c0.358,0.489,0.25,1.176-0.241,1.533
						C205.862,281.15,205.764,281.201,205.662,281.236z"/>
					<path style="fill:#261D2A;" d="M217.863,280.619c-0.444,0.152-0.951,0.006-1.241-0.392c-0.942-1.291-1.898-1.955-2.844-1.971
						c-1.385-0.023-2.475,1.318-2.484,1.331c-0.37,0.475-1.063,0.561-1.54,0.186c-0.477-0.374-0.561-1.063-0.187-1.54
						c0.071-0.089,1.768-2.214,4.249-2.17c1.67,0.029,3.21,0.995,4.579,2.872c0.358,0.489,0.25,1.176-0.241,1.533
						C218.063,280.534,217.965,280.585,217.863,280.619z"/>
					<path style="fill:#261D2A;" d="M238.059,274.758c-0.444,0.152-0.951,0.006-1.241-0.392c-0.942-1.291-1.898-1.955-2.842-1.972
						c-1.395-0.02-2.477,1.317-2.486,1.331c-0.372,0.475-1.062,0.562-1.54,0.186c-0.477-0.374-0.561-1.064-0.187-1.54
						c0.071-0.09,1.765-2.214,4.251-2.17c1.67,0.03,3.21,0.997,4.577,2.873c0.358,0.49,0.248,1.176-0.241,1.533
						C238.258,274.672,238.16,274.723,238.059,274.758z"/>
					<path style="fill:#261D2A;" d="M228.151,270.757c-0.444,0.152-0.951,0.006-1.241-0.392c-0.942-1.291-1.898-1.954-2.843-1.97
						c-1.386-0.027-2.475,1.317-2.484,1.33c-0.372,0.475-1.063,0.561-1.54,0.186c-0.477-0.374-0.561-1.063-0.187-1.54
						c0.071-0.09,1.769-2.216,4.249-2.169c1.67,0.029,3.209,0.994,4.578,2.871c0.358,0.489,0.25,1.176-0.239,1.532
						C228.35,270.672,228.252,270.722,228.151,270.757z"/>
					<path style="fill:#261D2A;" d="M229.954,279.059c-0.448,0.153-0.959,0.003-1.249-0.4c-1.277-1.794-2.518-2.741-3.585-2.742
						c-0.988-0.002-1.63,0.842-1.638,0.851c-0.351,0.489-1.035,0.608-1.53,0.253c-0.492-0.354-0.606-1.038-0.252-1.532
						c0.05-0.072,1.28-1.772,3.422-1.766c1.832,0.001,3.64,1.233,5.371,3.661c0.35,0.494,0.236,1.179-0.258,1.531
						C230.148,278.977,230.051,279.025,229.954,279.059z"/>
					<path style="fill:#261D2A;" d="M193.262,274.946c-0.257,0.088-0.55,0.082-0.816-0.042c-0.549-0.256-0.788-0.908-0.535-1.457
						c0.055-0.118,1.346-2.858,4.045-3.746c1.546-0.493,3.185-0.255,4.869,0.709c0.526,0.301,0.71,0.971,0.408,1.498
						c-0.301,0.524-0.972,0.707-1.496,0.407c-1.146-0.655-2.165-0.827-3.116-0.524c-1.748,0.617-2.707,2.558-2.719,2.577
						C193.77,274.652,193.535,274.852,193.262,274.946z"/>
				</g>
				<path style="fill:#212438;" d="M149.099,268.808c0,0-11.519,1.097-16.455,4.388c0,0-7.131-9.873-5.485-10.97
					c1.645-1.097,17.003-7.679,18.1-5.485S149.099,268.808,149.099,268.808z"/>
				<path style="fill:#CA7A8C;" d="M243.99,292.942c0,0,82.275-7.13,85.566-2.742c3.291,4.388,18.649,33.458,19.746,40.04
					c1.097,6.582,0.548,59.786,0.548,59.786s-114.637,4.936-116.831,0.548s-7.679-47.171-5.485-52.656
					C229.729,332.434,243.99,292.942,243.99,292.942z"/>
				<path style="fill:#FCFDFF;" d="M243.99,294.039c-0.332,0-0.662-0.152-0.878-0.439c-3.45-4.6,5.648-35.432,7.508-41.564
					c0.176-0.581,0.791-0.906,1.367-0.733c0.581,0.176,0.908,0.788,0.733,1.367c-4.489,14.812-9.89,36.895-7.85,39.614
					c0.362,0.484,0.264,1.172-0.221,1.536C244.45,293.969,244.219,294.039,243.99,294.039z"/>
				<path style="fill:#FCFDFF;" d="M331.752,292.394c-0.032,0-0.062-0.002-0.094-0.004c-0.602-0.049-1.052-0.581-1.001-1.185
					c1.056-12.68-12.89-38.065-13.031-38.32c-0.294-0.531-0.101-1.198,0.428-1.491c0.534-0.289,1.198-0.103,1.491,0.429
					c0.589,1.065,14.409,26.225,13.297,39.567C332.795,291.961,332.315,292.394,331.752,292.394z"/>
				<path style="fill:#261D2A;" d="M343.268,390.027c-0.583,0-1.067-0.456-1.095-1.043c-1.052-21.644-3.141-56.896-4.277-59.352
					c-0.216-0.435-0.645-1.356-1.234-2.631c-12.695-27.369-17.188-31.714-18.735-31.871c-5.601-0.559-61.141,1.172-64.485,3.055
					c-2.55,2.569-21.332,39.179-19.913,44.381c1.652,6.059,4.836,41.997,4.971,43.524c0.054,0.604-0.392,1.136-0.996,1.189
					c-0.611,0.039-1.138-0.394-1.189-0.996c-0.032-0.373-3.302-37.268-4.902-43.139c-1.918-7.034,18.9-44.913,20.577-46.59
					c2.88-2.88,62.257-4.004,66.156-3.606c3.777,0.377,9.909,10.284,20.507,33.129c0.576,1.247,0.994,2.149,1.208,2.575
					c1.665,3.33,4.043,50.751,4.502,60.224c0.03,0.606-0.437,1.121-1.041,1.148C343.302,390.027,343.285,390.027,343.268,390.027z"
					/>
				<path style="fill:#A27298;" d="M324.605,391.124c-11.261-22.105-33.926-9.647-44.147-2.406
					c-42.047-6.595-154.579,1.126-154.579,1.126c-2.406-0.073-4.648-0.062-6.754,0.016c-9.258-6.905-33.837-22.061-45.719,1.263
					c-6.027,11.83,13.655,25.203,30.167,29.235c16.492,17.286,53.834,35.331,94.709,34.574c46.183-0.855,77.584-17.462,91.924-33.74
					C307.316,418.673,331.158,403.987,324.605,391.124z M83.279,394.415c3.923-11.411,13.766-6.825,20.545-1.918
					c-7.683,2.96-10.243,8.108-8.749,14.229C87.921,402.811,81.957,398.26,83.279,394.415z M297.667,409.431
					c2.66-7.006,1.566-13.098-3.581-16.661c-0.28-0.194-0.594-0.382-0.93-0.566c5.946-5.3,15.117-10.348,21.576,2.212
					C317.073,398.966,307.133,404.949,297.667,409.431z"/>
				<path style="fill:#212438;" d="M149.648,307.752c0,0,12.433-10.604,15.358-5.485c2.925,5.119,16.089,41.138,16.089,41.138
					s20.477-1.463,23.403,5.119c2.925,6.582,20.477,40.955,17.552,43.149c-2.925,2.194-48.999,20.477-52.656,18.283
					s-13.164-36.567-14.627-40.223c-1.463-3.657,10.604-12.616,11.336-19.198S148.185,310.677,149.648,307.752z"/>
				<g>
					<path style="fill:#76AEA6;" d="M223.761,415.699c0,0,4.166-1.037,6.333,3.605c2.167,4.643,2.574,14.4,7.756,7.801
						c5.182-6.599,1.378-10.202,1.378-10.202s6.004,5.33,6.455-0.47c0.452-5.8-3.355-6.875-3.355-6.875s5.413,0.422,3.071-6.958
						c-2.343-7.379-6.928-3.457-6.928-3.457s7.379-2.343,0.66-5.978c-6.719-3.636-5.81,9.662-10.54,10.461
						c-4.73,0.799-7.882-1.197-8.866,1.449C218.741,407.722,215.191,418.338,223.761,415.699z"/>
					<path style="fill:#261D2A;" d="M233.088,415.804c-0.24,0-0.482-0.077-0.683-0.238c-3.113-2.479-6.533-4.579-7.4-4.474
						c-0.57,0.186-1.174-0.135-1.363-0.709c-0.186-0.576,0.148-1.2,0.724-1.386c2.07-0.684,6.775,2.755,9.406,4.851
						c0.474,0.379,0.553,1.069,0.176,1.543C233.729,415.663,233.41,415.804,233.088,415.804z"/>
					<path style="fill:#261D2A;" d="M227.235,408.543c-0.581,0-1.131-0.077-1.639-0.251c-0.572-0.195-0.878-0.818-0.681-1.393
						c0.195-0.572,0.816-0.881,1.393-0.681c2.173,0.741,6.906-1.682,9.382-3.383c0.497-0.349,1.185-0.212,1.526,0.283
						c0.343,0.499,0.216,1.181-0.283,1.526C236.281,405.091,231.138,408.543,227.235,408.543z"/>
				</g>
				<g>
					<path style="fill:#76AEA6;" d="M200.731,430.066c0,0-1.962-3.818,2.062-6.989c4.024-3.171,13.429-5.799,5.82-9.335
						c-7.609-3.536-10.247,0.992-10.247,0.992s3.816-7.064-1.934-6.177c-5.75,0.887-5.925,4.838-5.925,4.838
						s-0.828-5.366-7.476-1.398c-6.648,3.968-1.781,7.535-1.781,7.535s-3.969-6.648-5.971,0.725
						c-2.002,7.373,10.735,3.446,12.594,7.869s0.637,7.947,3.438,8.299C194.113,436.777,205.26,437.805,200.731,430.066z"/>
					<path style="fill:#261D2A;" d="M195.027,431.552c-0.379,0-0.752-0.197-0.96-0.542c-1.116-1.845,1.131-7.225,2.571-10.267
						c0.261-0.551,0.917-0.776,1.461-0.523c0.546,0.259,0.782,0.913,0.523,1.461c-1.701,3.595-2.944,7.441-2.661,8.228
						c0.313,0.518,0.139,1.176-0.379,1.489C195.409,431.503,195.218,431.552,195.027,431.552z"/>
					<path style="fill:#261D2A;" d="M192.013,430.963c-0.036,0-0.073-0.002-0.109-0.004c-0.604-0.06-1.043-0.598-0.986-1.2
						c0.227-2.284-3.216-6.342-5.438-8.362c-0.448-0.407-0.482-1.101-0.075-1.549c0.411-0.448,1.103-0.48,1.549-0.075
						c0.673,0.611,6.554,6.083,6.149,10.201C193.046,430.541,192.57,430.963,192.013,430.963z"/>
				</g>
				<g>
					<path style="fill:#76AEA6;" d="M162.648,412.222c0,0-4.293,0.002-5.276-5.026c-0.983-5.028,0.975-14.596-5.646-9.441
						c-6.621,5.154-3.798,9.568-3.798,9.568s-4.541-6.621-6.378-1.101c-1.837,5.52,1.598,7.481,1.598,7.481
						s-5.152-1.715-4.658,6.012s5.889,5.026,5.889,5.026s-7.727,0.494-2.082,5.643s7.968-7.976,12.752-7.61
						c4.783,0.366,7.36,3.063,8.954,0.732C165.596,421.174,171.601,411.728,162.648,412.222z"/>
					<path style="fill:#261D2A;" d="M160.337,418.583c-2.164,0-5.834-4.354-7.85-6.978c-0.369-0.48-0.279-1.17,0.201-1.538
						c0.478-0.366,1.168-0.281,1.538,0.201c2.423,3.154,5.275,6.016,6.102,6.123c0.587-0.056,1.11,0.416,1.153,1.02
						c0.041,0.604-0.433,1.127-1.039,1.17C160.408,418.583,160.371,418.583,160.337,418.583z"/>
					<path style="fill:#261D2A;" d="M147.584,421.9c-0.444,0-0.861-0.272-1.026-0.711c-0.214-0.568,0.073-1.2,0.641-1.412
						c0.848-0.321,8.403-3.053,11.883-0.808c0.508,0.328,0.656,1.007,0.326,1.517c-0.33,0.51-1.009,0.656-1.517,0.326
						c-1.928-1.241-7.107-0.034-9.92,1.018C147.844,421.878,147.713,421.9,147.584,421.9z"/>
				</g>
				<path style="fill:#C35041;" d="M141.893,456.018c0,0,2.845-17.43,14.382-22.892c11.537-5.462-0.307,9.336,6.385,13.06
					c6.692,3.725,11.844-14.797,20.844-12.165c9,2.632,7.918,24.014,16.757,20.021c8.839-3.993,2.684-24.055,13.837-17.847
					s4.231,9.485,12.096,12.08c7.865,2.595,5.19-19.689,13.998-11.222c8.808,8.467,17.309,26.27,9.252,29.51
					S127.511,478.91,141.893,456.018z"/>
				<path style="fill:#DBB521;" d="M235.762,467.914c0,0-1.646-9.873-9.325-12.067c-2.689-0.768-9.324,13.164-14.261,8.776
					c-4.937-4.388-2.194-10.97-7.679-11.519c-5.485-0.548-2.743,7.679-13.164,10.422c-10.422,2.742-14.81-11.518-20.295-10.97
					s-6.582,15.906-1.097,19.198C175.427,475.044,216.565,477.787,235.762,467.914z"/>
			</g>
		</g>
	</g>
</g>
<g id="_x30_3">
</g>
<g id="_x30_2">
</g>
<g id="_x30_1">
</g>
<g id="PREVIEW">
</g>
</svg>
