<svg width="160" height="41" viewBox="0 0 160 41" fill="none" xmlns="http://www.w3.org/2000/svg">
<path d="M8.5 0H160L148.5 41H0L8.5 0Z" fill="white"/>
<path d="M14.2955 32V8.72727H18.5114V19.4205H18.7955L27.875 8.72727H33.0227L24.0227 19.1705L33.1023 32H28.0341L21.0909 22.0227L18.5114 25.0682V32H14.2955ZM42.2159 32.3409C40.4659 32.3409 38.9545 31.9773 37.6818 31.25C36.4167 30.5152 35.4432 29.4773 34.7614 28.1364C34.0795 26.7879 33.7386 25.2008 33.7386 23.375C33.7386 21.5795 34.0795 20.0038 34.7614 18.6477C35.4508 17.2841 36.4129 16.2235 37.6477 15.4659C38.8826 14.7008 40.3333 14.3182 42 14.3182C43.0758 14.3182 44.0909 14.4924 45.0455 14.8409C46.0076 15.1818 46.8561 15.7121 47.5909 16.4318C48.3333 17.1515 48.9167 18.0682 49.3409 19.1818C49.7652 20.2879 49.9773 21.6061 49.9773 23.1364V24.3977H35.6705V21.625H46.0341C46.0265 20.8371 45.8561 20.1364 45.5227 19.5227C45.1894 18.9015 44.7235 18.4129 44.125 18.0568C43.5341 17.7008 42.8447 17.5227 42.0568 17.5227C41.2159 17.5227 40.4773 17.7273 39.8409 18.1364C39.2045 18.5379 38.7083 19.0682 38.3523 19.7273C38.0038 20.3788 37.8258 21.0947 37.8182 21.875V24.2955C37.8182 25.3106 38.0038 26.1818 38.375 26.9091C38.7462 27.6288 39.2652 28.1818 39.9318 28.5682C40.5985 28.947 41.3788 29.1364 42.2727 29.1364C42.8712 29.1364 43.4129 29.053 43.8977 28.8864C44.3826 28.7121 44.803 28.4583 45.1591 28.125C45.5152 27.7917 45.7841 27.3788 45.9659 26.8864L49.8068 27.3182C49.5644 28.3333 49.1023 29.2197 48.4205 29.9773C47.7462 30.7273 46.8826 31.3106 45.8295 31.7273C44.7765 32.1364 43.572 32.3409 42.2159 32.3409ZM62.1733 14.5455V17.7273H52.1392V14.5455H62.1733ZM54.6165 10.3636H58.7301V26.75C58.7301 27.303 58.8134 27.7273 58.9801 28.0227C59.1544 28.3106 59.3816 28.5076 59.6619 28.6136C59.9422 28.7197 60.2528 28.7727 60.5938 28.7727C60.8513 28.7727 61.0862 28.7538 61.2983 28.7159C61.518 28.678 61.6847 28.6439 61.7983 28.6136L62.4915 31.8295C62.2718 31.9053 61.9574 31.9886 61.5483 32.0795C61.1468 32.1705 60.6544 32.2235 60.071 32.2386C59.0407 32.2689 58.1127 32.1136 57.2869 31.7727C56.4612 31.4242 55.8059 30.8864 55.321 30.1591C54.8438 29.4318 54.6089 28.5227 54.6165 27.4318V10.3636ZM73.0398 32.3409C71.3352 32.3409 69.858 31.9659 68.608 31.2159C67.358 30.4659 66.3883 29.4167 65.6989 28.0682C65.017 26.7197 64.6761 25.1439 64.6761 23.3409C64.6761 21.5379 65.017 19.9583 65.6989 18.6023C66.3883 17.2462 67.358 16.1932 68.608 15.4432C69.858 14.6932 71.3352 14.3182 73.0398 14.3182C74.7443 14.3182 76.2216 14.6932 77.4716 15.4432C78.7216 16.1932 79.6875 17.2462 80.3693 18.6023C81.0587 19.9583 81.4034 21.5379 81.4034 23.3409C81.4034 25.1439 81.0587 26.7197 80.3693 28.0682C79.6875 29.4167 78.7216 30.4659 77.4716 31.2159C76.2216 31.9659 74.7443 32.3409 73.0398 32.3409ZM73.0625 29.0455C73.9867 29.0455 74.7595 28.7917 75.3807 28.2841C76.0019 27.7689 76.464 27.0795 76.767 26.2159C77.0777 25.3523 77.233 24.3902 77.233 23.3295C77.233 22.2614 77.0777 21.2955 76.767 20.4318C76.464 19.5606 76.0019 18.8674 75.3807 18.3523C74.7595 17.8371 73.9867 17.5795 73.0625 17.5795C72.1155 17.5795 71.3277 17.8371 70.6989 18.3523C70.0777 18.8674 69.6117 19.5606 69.3011 20.4318C68.9981 21.2955 68.8466 22.2614 68.8466 23.3295C68.8466 24.3902 68.9981 25.3523 69.3011 26.2159C69.6117 27.0795 70.0777 27.7689 70.6989 28.2841C71.3277 28.7917 72.1155 29.0455 73.0625 29.0455ZM85.0767 32V8.72727H89.2926V18.5795H100.077V8.72727H104.304V32H100.077V22.1136H89.2926V32H85.0767ZM119.832 24.6591V14.5455H123.946V32H119.957V28.8977H119.776C119.382 29.875 118.734 30.6742 117.832 31.2955C116.938 31.9167 115.836 32.2273 114.526 32.2273C113.382 32.2273 112.37 31.9735 111.491 31.4659C110.62 30.9508 109.938 30.2045 109.446 29.2273C108.954 28.2424 108.707 27.053 108.707 25.6591V14.5455H112.821V25.0227C112.821 26.1288 113.124 27.0076 113.73 27.6591C114.336 28.3106 115.132 28.6364 116.116 28.6364C116.723 28.6364 117.31 28.4886 117.878 28.1932C118.446 27.8977 118.912 27.4583 119.276 26.875C119.647 26.2841 119.832 25.5455 119.832 24.6591ZM128.358 32V8.72727H132.472V17.4318H132.642C132.854 17.0076 133.153 16.5568 133.54 16.0795C133.926 15.5947 134.449 15.1818 135.108 14.8409C135.767 14.4924 136.608 14.3182 137.631 14.3182C138.979 14.3182 140.195 14.6629 141.278 15.3523C142.369 16.0341 143.233 17.0455 143.869 18.3864C144.513 19.7197 144.835 21.3561 144.835 23.2955C144.835 25.2121 144.521 26.8409 143.892 28.1818C143.263 29.5227 142.407 30.5455 141.324 31.25C140.241 31.9545 139.013 32.3068 137.642 32.3068C136.642 32.3068 135.813 32.1402 135.153 31.8068C134.494 31.4735 133.964 31.072 133.562 30.6023C133.169 30.125 132.862 29.6742 132.642 29.25H132.403V32H128.358ZM132.392 23.2727C132.392 24.4015 132.551 25.3902 132.869 26.2386C133.195 27.0871 133.661 27.75 134.267 28.2273C134.881 28.697 135.623 28.9318 136.494 28.9318C137.403 28.9318 138.165 28.6894 138.778 28.2045C139.392 27.7121 139.854 27.0417 140.165 26.1932C140.483 25.3371 140.642 24.3636 140.642 23.2727C140.642 22.1894 140.487 21.2273 140.176 20.3864C139.866 19.5455 139.403 18.8864 138.79 18.4091C138.176 17.9318 137.411 17.6932 136.494 17.6932C135.616 17.6932 134.869 17.9242 134.256 18.3864C133.642 18.8485 133.176 19.4962 132.858 20.3295C132.547 21.1629 132.392 22.1439 132.392 23.2727Z" fill="#FC0000"/>
</svg>
